<?xml version="1.0" encoding="UTF-8" ?>
<!DOCTYPE svg PUBLIC "-//W3C//DTD SVG 1.1//EN" "http://www.w3.org/Graphics/SVG/1.1/DTD/svg11.dtd">
<svg width="225pt" height="225pt" viewBox="0 0 225 225" version="1.1" xmlns="http://www.w3.org/2000/svg">
<path fill="#8fc0e5" d=" M 0.00 0.00 L 28.02 0.00 C 28.00 3.57 28.03 7.14 27.92 10.71 C 24.45 11.62 23.46 14.77 23.91 18.03 C 15.84 18.55 7.98 16.49 0.00 15.86 L 0.00 0.00 Z" />
<path fill="#133852" d=" M 28.02 0.00 L 36.03 0.00 C 35.97 4.60 36.01 9.21 35.80 13.81 C 29.88 13.64 31.85 20.54 34.44 23.60 C 32.30 23.80 30.17 23.96 28.03 24.07 C 28.02 23.30 27.99 21.77 27.98 21.00 C 27.99 17.57 27.98 14.14 27.92 10.71 C 28.03 7.14 28.00 3.57 28.02 0.00 Z" />
<path fill="#536f88" d=" M 36.03 0.00 L 40.01 0.00 C 40.00 5.39 40.00 10.78 39.94 16.16 C 38.20 15.87 35.56 16.41 35.80 13.81 C 36.01 9.21 35.97 4.60 36.03 0.00 Z" />
<path fill="#112231" d=" M 40.01 0.00 L 103.56 0.00 C 102.37 4.98 97.05 1.00 94.08 3.25 C 93.15 7.12 97.99 9.67 96.66 13.64 C 95.78 15.61 100.24 16.08 97.82 17.71 C 92.45 15.97 90.22 23.39 84.22 20.07 C 70.88 20.04 57.51 19.71 44.17 20.13 C 44.04 21.37 43.95 22.61 43.90 23.86 C 43.13 23.82 41.59 23.74 40.82 23.70 C 40.74 21.16 40.26 18.67 39.94 16.16 C 40.00 10.78 40.00 5.39 40.01 0.00 Z" />
<path fill="#20333e" d=" M 103.56 0.00 L 142.63 0.00 C 139.78 5.83 129.96 4.11 129.21 11.21 C 126.68 11.99 123.98 12.67 123.47 15.71 C 119.36 15.41 115.48 14.12 116.93 19.97 C 112.67 20.00 108.41 19.84 104.15 20.00 C 99.46 18.83 99.56 26.91 94.02 24.03 C 89.80 21.87 89.11 25.59 87.42 27.67 C 78.32 31.24 83.92 23.96 84.22 20.07 C 90.22 23.39 92.45 15.97 97.82 17.71 C 100.24 16.08 95.78 15.61 96.66 13.64 C 97.99 9.67 93.15 7.12 94.08 3.25 C 97.05 1.00 102.37 4.98 103.56 0.00 Z" />
<path fill="#2f4551" d=" M 142.63 0.00 L 174.54 0.00 C 173.03 5.72 165.15 2.03 163.81 7.95 C 162.13 7.99 160.45 8.01 158.77 8.03 C 150.03 3.95 149.08 13.92 141.37 12.25 C 141.44 15.20 139.98 16.59 137.01 16.11 C 135.30 16.08 131.88 16.02 130.17 15.99 C 126.67 15.24 123.95 16.61 122.83 20.01 C 122.10 20.02 120.63 20.05 119.90 20.06 C 119.16 20.04 117.68 20.00 116.93 19.97 C 115.48 14.12 119.36 15.41 123.47 15.71 C 123.98 12.67 126.68 11.99 129.21 11.21 C 129.96 4.11 139.78 5.83 142.63 0.00 Z" />
<path fill="#496673" d=" M 174.54 0.00 L 181.05 0.00 C 181.00 1.61 180.95 3.21 180.88 4.82 C 179.07 11.77 168.77 6.13 163.81 7.95 C 165.15 2.03 173.03 5.72 174.54 0.00 Z" />
<path fill="#8cb6cb" d=" M 181.05 0.00 L 189.67 0.00 C 193.27 7.97 203.01 8.70 210.42 10.46 C 215.38 10.55 220.08 8.18 225.00 10.18 L 225.00 23.93 L 224.02 23.98 C 220.33 23.98 216.67 23.98 212.98 23.91 C 213.75 22.00 214.35 20.03 214.81 18.02 C 209.85 15.78 202.76 19.59 199.11 14.87 C 195.47 10.81 189.25 11.24 185.13 7.86 C 183.95 6.50 182.32 7.52 180.93 7.87 C 180.92 7.11 180.90 5.58 180.88 4.82 C 180.95 3.21 181.00 1.61 181.05 0.00 Z" />
<path fill="#77b5d3" d=" M 189.67 0.00 L 225.00 0.00 L 225.00 10.18 C 220.08 8.18 215.38 10.55 210.42 10.46 C 203.01 8.70 193.27 7.97 189.67 0.00 Z" />
<path fill="#6d8a96" d=" M 163.81 7.95 C 168.77 6.13 179.07 11.77 180.88 4.82 C 180.90 5.58 180.92 7.11 180.93 7.87 C 180.96 9.16 181.02 10.45 181.10 11.73 C 174.92 9.43 160.19 17.41 158.77 8.03 C 160.45 8.01 162.13 7.99 163.81 7.95 Z" />
<path fill="#a4b8c4" d=" M 180.93 7.87 C 182.32 7.52 183.95 6.50 185.13 7.86 C 189.25 11.24 195.47 10.81 199.11 14.87 C 202.76 19.59 209.85 15.78 214.81 18.02 C 214.35 20.03 213.75 22.00 212.98 23.91 C 210.71 28.17 206.30 28.31 201.93 27.98 C 201.67 25.34 201.97 22.57 200.81 20.10 C 195.67 19.82 190.53 19.85 185.40 20.20 C 184.47 22.89 183.46 25.56 182.18 28.11 C 187.77 28.10 193.36 27.98 198.95 28.00 C 198.53 29.30 198.17 30.62 197.82 31.95 C 193.15 32.00 188.49 32.09 183.82 32.11 C 183.14 32.09 181.78 32.04 181.10 32.02 C 182.47 26.37 176.64 28.26 172.91 28.00 C 173.15 25.88 172.04 21.98 175.45 23.39 C 182.86 27.36 180.71 20.30 181.16 16.21 C 185.33 16.89 183.83 12.52 181.10 11.73 C 181.02 10.45 180.96 9.16 180.93 7.87 Z" />
<path fill="#566e7c" d=" M 141.37 12.25 C 149.08 13.92 150.03 3.95 158.77 8.03 C 160.19 17.41 174.92 9.43 181.10 11.73 C 183.83 12.52 185.33 16.89 181.16 16.21 C 178.38 16.93 181.74 24.27 175.06 19.96 C 169.71 11.32 155.70 19.97 147.62 13.47 C 144.47 11.58 146.19 17.14 148.80 16.49 C 149.79 19.70 145.98 21.41 144.76 23.98 C 140.47 25.35 141.06 19.20 137.02 19.63 C 137.01 18.45 137.01 17.28 137.01 16.11 C 139.98 16.59 141.44 15.20 141.37 12.25 Z" />
<path fill="#78a3bf" d=" M 23.91 18.03 C 23.46 14.77 24.45 11.62 27.92 10.71 C 27.98 14.14 27.99 17.57 27.98 21.00 C 26.66 21.00 25.33 21.00 24.01 21.00 C 23.99 20.26 23.93 18.78 23.91 18.03 Z" />
<path fill="#7e99a4" d=" M 148.80 16.49 C 146.19 17.14 144.47 11.58 147.62 13.47 C 155.70 19.97 169.71 11.32 175.06 19.96 C 181.74 24.27 178.38 16.93 181.16 16.21 C 180.71 20.30 182.86 27.36 175.45 23.39 C 172.04 21.98 173.15 25.88 172.91 28.00 C 168.55 30.21 168.43 21.57 164.94 24.89 C 162.47 29.57 159.67 22.28 155.84 23.98 C 152.14 23.93 148.46 24.05 144.76 23.98 C 145.98 21.41 149.79 19.70 148.80 16.49 Z" />
<path fill="#315062" d=" M 34.44 23.60 C 31.85 20.54 29.88 13.64 35.80 13.81 C 35.56 16.41 38.20 15.87 39.94 16.16 C 40.26 18.67 40.74 21.16 40.82 23.70 C 37.46 29.41 44.26 27.93 48.24 28.13 C 47.85 29.74 48.40 32.31 46.01 32.23 C 40.02 33.25 37.29 27.59 34.44 23.60 Z" />
<path fill="#a2c4d7" d=" M 0.00 15.86 C 7.98 16.49 15.84 18.55 23.91 18.03 C 23.93 18.78 23.99 20.26 24.01 21.00 C 24.00 22.73 23.98 26.18 23.96 27.90 C 22.69 28.29 21.42 28.70 20.14 29.10 C 21.46 18.94 6.73 25.53 0.00 24.00 L 0.00 15.86 Z" />
<path fill="#5e7681" d=" M 122.83 20.01 C 123.95 16.61 126.67 15.24 130.17 15.99 C 129.05 19.41 126.31 20.72 122.83 20.01 Z" />
<path fill="#8fa4af" d=" M 130.17 15.99 C 131.88 16.02 135.30 16.08 137.01 16.11 C 137.01 17.28 137.01 18.45 137.02 19.63 C 134.17 19.52 132.51 21.27 131.43 23.69 C 127.39 23.30 118.33 27.04 119.90 20.06 C 120.63 20.05 122.10 20.02 122.83 20.01 C 126.31 20.72 129.05 19.41 130.17 15.99 Z" />
<path fill="#3b4d55" d=" M 44.17 20.13 C 57.51 19.71 70.88 20.04 84.22 20.07 C 83.92 23.96 78.32 31.24 87.42 27.67 C 89.11 25.59 89.80 21.87 94.02 24.03 C 99.56 26.91 99.46 18.83 104.15 20.00 C 105.00 24.35 99.68 24.27 98.86 27.96 C 104.03 28.28 117.23 25.04 111.79 33.98 C 105.77 32.58 97.11 28.71 93.95 36.01 C 93.25 36.04 91.85 36.08 91.15 36.11 C 90.57 36.08 89.43 36.03 88.85 36.00 C 90.74 35.35 92.50 34.41 92.11 32.09 C 82.66 31.86 73.20 32.07 63.75 31.89 C 64.53 28.82 71.49 27.08 67.74 24.11 C 63.21 25.07 55.03 21.06 52.93 26.99 C 52.07 28.52 49.72 27.72 48.24 28.13 C 48.68 24.87 47.19 23.31 43.90 23.86 C 43.95 22.61 44.04 21.37 44.17 20.13 Z" />
<path fill="#56646a" d=" M 104.15 20.00 C 108.41 19.84 112.67 20.00 116.93 19.97 C 117.68 20.00 119.16 20.04 119.90 20.06 C 118.33 27.04 127.39 23.30 131.43 23.69 C 132.51 21.27 134.17 19.52 137.02 19.63 C 141.06 19.20 140.47 25.35 144.76 23.98 C 148.46 24.05 152.14 23.93 155.84 23.98 C 157.05 27.27 156.63 34.59 162.48 31.53 C 167.93 25.79 173.78 35.52 181.10 32.02 C 181.78 32.04 183.14 32.09 183.82 32.11 C 186.50 32.39 189.51 32.78 190.30 35.70 C 187.14 35.80 184.02 35.80 180.88 36.04 C 178.53 35.73 177.50 38.11 176.94 39.95 C 171.21 40.02 165.49 40.12 159.77 40.19 C 158.13 40.13 154.83 40.00 153.19 39.94 C 151.42 34.08 144.84 36.37 140.12 35.95 C 141.46 27.98 129.61 33.30 125.25 32.46 C 121.56 34.30 116.30 29.48 115.94 36.00 C 108.61 36.03 101.28 35.98 93.95 36.01 C 97.11 28.71 105.77 32.58 111.79 33.98 C 117.23 25.04 104.03 28.28 98.86 27.96 C 99.68 24.27 105.00 24.35 104.15 20.00 Z" />
<path fill="#d2e0e9" d=" M 185.40 20.20 C 190.53 19.85 195.67 19.82 200.81 20.10 C 201.97 22.57 201.67 25.34 201.93 27.98 C 201.19 27.99 199.70 27.99 198.95 28.00 C 193.36 27.98 187.77 28.10 182.18 28.11 C 183.46 25.56 184.47 22.89 185.40 20.20 Z" />
<path fill="#64808e" d=" M 24.01 21.00 C 25.33 21.00 26.66 21.00 27.98 21.00 C 27.99 21.77 28.02 23.30 28.03 24.07 C 28.00 27.65 28.02 31.24 27.95 34.82 C 26.64 35.17 25.33 35.54 24.04 35.96 C 24.02 33.27 24.00 30.59 23.96 27.90 C 23.98 26.18 24.00 22.73 24.01 21.00 Z" />
<path fill="#e4f0f1" d=" M 0.00 24.00 C 6.73 25.53 21.46 18.94 20.14 29.10 C 24.41 37.62 14.47 33.78 15.92 40.01 C 13.31 40.07 10.70 40.08 8.08 40.04 C 9.48 34.45 3.74 36.14 0.00 35.89 L 0.00 24.00 Z" />
<path fill="#152638" d=" M 28.03 24.07 C 30.17 23.96 32.30 23.80 34.44 23.60 C 37.29 27.59 40.02 33.25 46.01 32.23 C 47.87 33.62 48.17 36.04 49.19 37.98 C 53.85 35.48 59.25 34.72 63.75 31.89 C 73.20 32.07 82.66 31.86 92.11 32.09 C 92.50 34.41 90.74 35.35 88.85 36.00 C 86.22 35.96 83.60 35.95 80.97 35.95 C 79.27 35.94 77.57 35.95 75.87 35.98 C 73.55 35.73 71.37 35.96 71.81 38.86 C 67.56 41.95 72.82 47.19 66.29 48.32 C 58.93 49.22 51.41 45.90 44.21 48.26 C 44.11 49.46 44.05 50.67 44.05 51.88 C 41.38 51.93 38.72 51.98 36.05 52.02 C 39.00 43.83 33.86 43.36 27.97 43.94 C 27.97 40.90 27.98 37.86 27.95 34.82 C 28.02 31.24 28.00 27.65 28.03 24.07 Z" />
<path fill="#778fa0" d=" M 48.24 28.13 C 44.26 27.93 37.46 29.41 40.82 23.70 C 41.59 23.74 43.13 23.82 43.90 23.86 C 47.19 23.31 48.68 24.87 48.24 28.13 Z" />
<path fill="#283847" d=" M 52.93 26.99 C 55.03 21.06 63.21 25.07 67.74 24.11 C 71.49 27.08 64.53 28.82 63.75 31.89 C 59.25 34.72 53.85 35.48 49.19 37.98 C 48.17 36.04 47.87 33.62 46.01 32.23 C 48.40 32.31 47.85 29.74 48.24 28.13 C 49.72 27.72 52.07 28.52 52.93 26.99 Z" />
<path fill="#6b8189" d=" M 155.84 23.98 C 159.67 22.28 162.47 29.57 164.94 24.89 C 168.43 21.57 168.55 30.21 172.91 28.00 C 176.64 28.26 182.47 26.37 181.10 32.02 C 173.78 35.52 167.93 25.79 162.48 31.53 C 156.63 34.59 157.05 27.27 155.84 23.98 Z" />
<path fill="#7993a6" d=" M 201.93 27.98 C 206.30 28.31 210.71 28.17 212.98 23.91 C 216.67 23.98 220.33 23.98 224.02 23.98 C 222.74 26.52 221.86 29.24 220.62 31.80 C 213.02 32.20 205.42 32.03 197.82 31.95 C 198.17 30.62 198.53 29.30 198.95 28.00 C 199.70 27.99 201.19 27.99 201.93 27.98 Z" />
<path fill="#5a7287" d=" M 224.02 23.98 L 225.00 23.93 L 225.00 36.85 C 220.49 34.96 217.99 38.45 215.10 39.90 C 209.92 34.77 201.26 38.37 197.70 43.67 C 194.12 42.59 188.63 43.04 188.75 47.96 L 187.85 48.01 C 187.19 48.00 185.87 47.98 185.21 47.98 C 185.49 42.92 180.56 43.86 176.87 44.14 L 176.03 44.10 C 176.38 42.73 176.67 41.34 176.94 39.95 C 177.50 38.11 178.53 35.73 180.88 36.04 C 178.47 43.00 196.75 42.63 190.30 35.70 C 189.51 32.78 186.50 32.39 183.82 32.11 C 188.49 32.09 193.15 32.00 197.82 31.95 C 205.42 32.03 213.02 32.20 220.62 31.80 C 221.86 29.24 222.74 26.52 224.02 23.98 Z" />
<path fill="#99abb4" d=" M 20.14 29.10 C 21.42 28.70 22.69 28.29 23.96 27.90 C 24.00 30.59 24.02 33.27 24.04 35.96 C 24.88 40.17 22.30 41.05 18.04 40.01 C 17.51 40.01 16.45 40.01 15.92 40.01 C 14.47 33.78 24.41 37.62 20.14 29.10 Z" />
<path fill="#808686" d=" M 115.94 36.00 C 116.30 29.48 121.56 34.30 125.25 32.46 C 129.61 33.30 141.46 27.98 140.12 35.95 C 138.71 35.98 137.30 36.01 135.90 36.04 C 129.24 35.98 122.60 36.03 115.94 36.00 Z" />
<path fill="#405d6c" d=" M 24.04 35.96 C 25.33 35.54 26.64 35.17 27.95 34.82 C 27.98 37.86 27.97 40.90 27.97 43.94 C 23.89 43.62 18.63 42.61 19.92 47.97 C 18.62 47.96 17.33 47.95 16.03 47.94 C 15.95 46.61 15.87 45.27 15.78 43.94 C 16.05 42.36 16.71 40.95 18.04 40.01 C 22.30 41.05 24.88 40.17 24.04 35.96 Z" />
<path fill="#8b9a9b" d=" M 0.00 35.89 C 3.74 36.14 9.48 34.45 8.08 40.04 C 3.91 41.29 4.11 35.95 0.00 36.77 L 0.00 35.89 Z" />
<path fill="#44525f" d=" M 71.81 38.86 C 71.37 35.96 73.55 35.73 75.87 35.98 C 75.48 38.90 76.54 40.70 79.66 40.22 C 82.34 41.84 89.76 38.78 89.18 43.97 C 82.76 45.36 76.79 42.59 71.81 38.86 Z" />
<path fill="#717f89" d=" M 75.87 35.98 C 77.57 35.95 79.27 35.94 80.97 35.95 C 80.49 37.36 80.07 38.79 79.66 40.22 C 76.54 40.70 75.48 38.90 75.87 35.98 Z" />
<path fill="#a7b5bf" d=" M 80.97 35.95 C 83.60 35.95 86.22 35.96 88.85 36.00 C 89.43 36.03 90.57 36.08 91.15 36.11 C 88.26 36.79 83.28 35.70 83.84 39.96 C 82.45 40.05 81.05 40.13 79.66 40.22 C 80.07 38.79 80.49 37.36 80.97 35.95 Z" />
<path fill="#d5dedd" d=" M 91.15 36.11 C 91.85 36.08 93.25 36.04 93.95 36.01 C 101.28 35.98 108.61 36.03 115.94 36.00 C 122.60 36.03 129.24 35.98 135.90 36.04 C 136.29 37.36 136.70 38.67 137.10 39.99 C 133.21 40.07 129.33 40.01 125.46 39.80 C 123.69 32.33 117.90 43.74 113.25 39.93 C 111.46 36.36 107.06 36.91 103.21 36.94 C 104.14 39.27 105.08 41.65 104.91 44.21 C 103.64 44.11 102.38 44.03 101.11 43.97 C 102.48 38.24 96.50 40.30 92.75 40.15 C 89.78 40.07 86.81 39.99 83.84 39.96 C 83.28 35.70 88.26 36.79 91.15 36.11 Z" />
<path fill="#9ea2a5" d=" M 135.90 36.04 C 137.30 36.01 138.71 35.98 140.12 35.95 C 144.84 36.37 151.42 34.08 153.19 39.94 C 147.82 39.95 142.46 40.05 137.10 39.99 C 136.70 38.67 136.29 37.36 135.90 36.04 Z" />
<path fill="#8f9eaa" d=" M 180.88 36.04 C 184.02 35.80 187.14 35.80 190.30 35.70 C 196.75 42.63 178.47 43.00 180.88 36.04 Z" />
<path fill="#5d777e" d=" M 0.00 36.77 C 4.11 35.95 3.91 41.29 8.08 40.04 C 10.70 40.08 13.31 40.07 15.92 40.01 C 16.45 40.01 17.51 40.01 18.04 40.01 C 16.71 40.95 16.05 42.36 15.78 43.94 C 10.52 43.99 5.26 44.01 0.00 44.00 L 0.00 36.77 Z" />
<path fill="#f3f9f5" d=" M 103.21 36.94 C 107.06 36.91 111.46 36.36 113.25 39.93 C 117.90 43.74 123.69 32.33 125.46 39.80 C 129.33 40.01 133.21 40.07 137.10 39.99 C 142.46 40.05 147.82 39.95 153.19 39.94 C 154.83 40.00 158.13 40.13 159.77 40.19 C 166.80 38.99 169.21 45.58 176.03 44.10 L 176.87 44.14 C 180.58 44.35 181.19 49.14 185.21 47.98 C 185.87 47.98 187.19 48.00 187.85 48.01 C 188.51 50.69 189.86 52.80 192.98 52.02 C 194.32 52.02 195.67 52.00 197.01 51.95 C 196.29 55.23 197.69 56.73 201.00 56.00 C 200.29 59.27 201.73 60.71 205.00 60.00 C 204.28 63.28 205.74 64.71 209.02 63.99 C 208.62 67.09 208.81 70.03 212.70 69.07 C 213.33 71.93 216.57 73.01 216.82 76.12 C 216.35 79.27 217.91 80.62 221.00 80.11 C 221.00 81.41 221.01 82.70 221.01 84.00 C 220.54 88.16 219.64 93.26 225.00 92.19 L 225.00 112.44 C 222.81 112.10 220.90 111.13 219.52 109.39 C 210.36 114.14 196.30 111.67 185.07 113.00 C 185.42 108.84 186.36 103.66 180.98 104.91 C 180.98 103.00 180.99 101.09 180.95 99.19 C 180.57 95.13 183.09 88.26 177.08 87.78 C 177.08 87.07 177.07 85.65 177.07 84.93 C 177.57 81.62 176.86 79.02 172.97 79.78 C 173.86 77.18 172.15 75.15 169.44 75.79 C 169.32 75.12 169.09 73.79 168.97 73.12 C 169.52 69.69 168.97 66.93 164.87 67.84 C 166.17 65.05 163.98 62.85 161.18 64.09 C 161.64 60.89 160.35 59.25 157.06 60.03 C 157.60 55.78 153.57 55.07 149.93 56.07 L 149.03 56.01 C 150.10 51.96 147.25 51.45 143.88 51.96 C 141.28 52.03 138.68 52.07 136.08 52.08 C 139.69 46.01 131.71 48.43 127.80 48.09 C 127.16 48.05 125.87 47.98 125.23 47.94 C 125.35 41.15 116.91 44.94 112.82 44.07 C 110.18 44.10 107.54 44.15 104.91 44.21 C 105.08 41.65 104.14 39.27 103.21 36.94 Z" />
<path fill="#3c5e6b" d=" M 197.70 43.67 C 201.26 38.37 209.92 34.77 215.10 39.90 C 217.99 38.45 220.49 34.96 225.00 36.85 L 225.00 67.99 C 221.03 68.00 217.06 68.02 213.10 68.05 C 213.70 64.81 212.29 63.28 209.02 63.99 C 209.70 60.73 208.25 59.30 205.00 60.00 C 205.70 56.73 204.27 55.29 201.00 56.00 C 201.70 52.75 200.26 51.31 197.01 51.95 C 197.69 48.72 196.26 47.25 193.02 47.97 C 191.60 47.95 190.17 47.95 188.75 47.96 C 188.63 43.04 194.12 42.59 197.70 43.67 Z" />
<path fill="#243b4e" d=" M 71.81 38.86 C 76.79 42.59 82.76 45.36 89.18 43.97 C 89.63 43.99 90.55 44.01 91.00 44.03 C 96.48 49.66 85.25 46.45 82.60 49.93 C 87.12 54.94 97.07 49.07 101.29 55.89 C 91.65 52.74 87.24 62.44 81.95 68.05 C 80.31 68.02 78.67 67.97 77.04 67.93 C 75.65 62.39 83.24 60.20 82.93 55.21 C 77.91 53.67 72.58 54.83 67.50 53.72 C 57.50 49.09 56.51 62.27 47.96 64.06 C 49.48 59.10 54.10 56.21 57.51 52.57 C 61.36 53.13 63.92 50.71 66.29 48.32 C 72.82 47.19 67.56 41.95 71.81 38.86 Z" />
<path fill="#758389" d=" M 79.66 40.22 C 81.05 40.13 82.45 40.05 83.84 39.96 C 86.81 39.99 89.78 40.07 92.75 40.15 C 95.17 40.65 98.05 41.07 96.12 44.02 C 94.41 44.05 92.71 44.04 91.00 44.03 C 90.55 44.01 89.63 43.99 89.18 43.97 C 89.76 38.78 82.34 41.84 79.66 40.22 Z" />
<path fill="#acb7b8" d=" M 92.75 40.15 C 96.50 40.30 102.48 38.24 101.11 43.97 C 99.45 43.98 97.78 44.02 96.12 44.02 C 98.05 41.07 95.17 40.65 92.75 40.15 Z" />
<path fill="#acb4b6" d=" M 159.77 40.19 C 165.49 40.12 171.21 40.02 176.94 39.95 C 176.67 41.34 176.38 42.73 176.03 44.10 C 169.21 45.58 166.80 38.99 159.77 40.19 Z" />
<path fill="#8fb4c1" d=" M 0.00 44.00 C 5.26 44.01 10.52 43.99 15.78 43.94 C 15.87 45.27 15.95 46.61 16.03 47.94 C 10.67 48.04 5.28 48.13 0.00 49.13 L 0.00 44.00 Z" />
<path fill="#133042" d=" M 19.92 47.97 C 18.63 42.61 23.89 43.62 27.97 43.94 C 28.00 46.87 27.85 49.81 28.14 52.73 C 30.66 53.25 34.52 52.16 35.99 55.05 L 35.98 56.00 C 34.36 56.02 32.74 56.05 31.12 56.08 C 24.06 58.96 23.71 52.30 19.99 48.89 L 19.92 47.97 Z" />
<path fill="#384d5f" d=" M 27.97 43.94 C 33.86 43.36 39.00 43.83 36.05 52.02 C 36.04 52.78 36.01 54.29 35.99 55.05 C 34.52 52.16 30.66 53.25 28.14 52.73 C 27.85 49.81 28.00 46.87 27.97 43.94 Z" />
<path fill="#374b53" d=" M 91.00 44.03 C 92.71 44.04 94.41 44.05 96.12 44.02 C 97.78 44.02 99.45 43.98 101.11 43.97 C 102.38 44.03 103.64 44.11 104.91 44.21 C 105.99 44.48 107.08 44.74 108.18 44.97 C 108.25 48.04 106.49 49.16 102.88 48.33 C 103.58 51.27 106.98 56.80 101.29 55.89 C 97.07 49.07 87.12 54.94 82.60 49.93 C 85.25 46.45 96.48 49.66 91.00 44.03 Z" />
<path fill="#808e8a" d=" M 104.91 44.21 C 107.54 44.15 110.18 44.10 112.82 44.07 C 114.74 44.67 116.24 45.76 116.21 47.97 C 111.92 49.43 112.28 43.97 108.18 44.97 C 107.08 44.74 105.99 44.48 104.91 44.21 Z" />
<path fill="#c0cbc6" d=" M 112.82 44.07 C 116.91 44.94 125.35 41.15 125.23 47.94 C 123.16 47.96 121.09 48.00 119.02 48.02 C 118.31 48.01 116.91 47.98 116.21 47.97 C 116.24 45.76 114.74 44.67 112.82 44.07 Z" />
<path fill="#becad3" d=" M 176.87 44.14 C 180.56 43.86 185.49 42.92 185.21 47.98 C 181.19 49.14 180.58 44.35 176.87 44.14 Z" />
<path fill="#48626d" d=" M 108.18 44.97 C 112.28 43.97 111.92 49.43 116.21 47.97 C 116.91 47.98 118.31 48.01 119.02 48.02 C 121.41 51.67 122.37 57.74 116.23 56.12 C 107.72 54.58 100.50 59.78 93.19 63.15 C 89.75 64.84 85.02 64.22 83.01 68.10 L 81.95 68.05 C 87.24 62.44 91.65 52.74 101.29 55.89 C 106.98 56.80 103.58 51.27 102.88 48.33 C 106.49 49.16 108.25 48.04 108.18 44.97 Z" />
<path fill="#2b4864" d=" M 44.21 48.26 C 51.41 45.90 58.93 49.22 66.29 48.32 C 63.92 50.71 61.36 53.13 57.51 52.57 C 54.10 56.21 49.48 59.10 47.96 64.06 C 42.91 65.51 45.57 72.15 44.12 76.03 C 41.71 76.07 39.29 75.79 37.01 74.94 C 40.57 72.45 39.82 67.92 39.96 64.08 C 40.11 62.62 40.27 61.16 40.60 59.73 C 48.49 63.88 46.35 56.80 50.95 55.55 C 49.34 53.21 47.01 51.56 44.05 51.88 C 44.05 50.67 44.11 49.46 44.21 48.26 Z" />
<path fill="#bedce1" d=" M 0.00 49.13 C 5.28 48.13 10.67 48.04 16.03 47.94 C 17.33 47.95 18.62 47.96 19.92 47.97 L 19.99 48.89 C 20.01 50.65 20.03 54.18 20.05 55.94 C 16.19 55.01 13.42 56.03 12.34 59.65 C 8.24 60.04 4.12 60.03 0.00 59.94 L 0.00 49.13 Z" />
<path fill="#6e858e" d=" M 119.02 48.02 C 121.09 48.00 123.16 47.96 125.23 47.94 C 125.87 47.98 127.16 48.05 127.80 48.09 C 131.50 48.27 132.15 53.08 136.08 52.08 C 138.68 52.07 141.28 52.03 143.88 51.96 L 144.19 52.78 C 141.64 53.25 133.26 51.43 137.48 55.39 C 147.42 59.20 153.52 68.05 159.90 76.08 C 153.20 78.34 149.51 73.26 146.38 68.61 C 140.76 69.89 138.36 63.46 133.13 63.85 C 133.08 58.33 124.79 52.48 120.97 57.97 C 119.22 60.83 115.29 60.00 112.79 61.74 C 111.94 64.12 112.28 67.67 109.23 68.24 C 106.14 67.59 98.75 65.22 100.54 70.99 C 92.79 76.47 85.11 83.19 76.10 87.03 C 75.76 80.43 85.93 82.73 86.41 76.57 C 84.89 69.46 93.96 71.04 94.93 64.95 C 101.03 65.97 103.70 58.36 110.02 60.03 C 112.89 60.42 114.50 57.94 116.23 56.12 C 122.37 57.74 121.41 51.67 119.02 48.02 Z" />
<path fill="#b0bdbc" d=" M 127.80 48.09 C 131.71 48.43 139.69 46.01 136.08 52.08 C 132.15 53.08 131.50 48.27 127.80 48.09 Z" />
<path fill="#b5bcc2" d=" M 187.85 48.01 L 188.75 47.96 C 190.17 47.95 191.60 47.95 193.02 47.97 C 193.00 49.32 192.99 50.67 192.98 52.02 C 189.86 52.80 188.51 50.69 187.85 48.01 Z" />
<path fill="#758692" d=" M 193.02 47.97 C 196.26 47.25 197.69 48.72 197.01 51.95 C 195.67 52.00 194.32 52.02 192.98 52.02 C 192.99 50.67 193.00 49.32 193.02 47.97 Z" />
<path fill="#3e5965" d=" M 19.99 48.89 C 23.71 52.30 24.06 58.96 31.12 56.08 C 28.80 57.82 26.43 59.66 24.12 61.04 C 24.77 65.28 24.79 69.04 20.11 68.10 C 20.61 65.00 19.43 63.28 16.19 63.91 C 16.07 63.12 15.83 61.55 15.70 60.76 C 18.68 60.50 20.88 59.30 20.05 55.94 C 20.03 54.18 20.01 50.65 19.99 48.89 Z" />
<path fill="#8dabc1" d=" M 36.05 52.02 C 38.72 51.98 41.38 51.93 44.05 51.88 C 45.15 55.87 40.32 55.99 40.60 59.73 C 40.27 61.16 40.11 62.62 39.96 64.08 C 36.67 64.72 35.32 63.13 35.93 59.90 C 35.96 58.60 35.97 57.30 35.98 56.00 L 35.99 55.05 C 36.01 54.29 36.04 52.78 36.05 52.02 Z" />
<path fill="#48657f" d=" M 44.05 51.88 C 47.01 51.56 49.34 53.21 50.95 55.55 C 46.35 56.80 48.49 63.88 40.60 59.73 C 40.32 55.99 45.15 55.87 44.05 51.88 Z" />
<path fill="#b6c6c5" d=" M 143.88 51.96 C 147.25 51.45 150.10 51.96 149.03 56.01 C 146.46 56.39 144.57 55.47 144.19 52.78 L 143.88 51.96 Z" />
<path fill="#819298" d=" M 197.01 51.95 C 200.26 51.31 201.70 52.75 201.00 56.00 C 197.69 56.73 196.29 55.23 197.01 51.95 Z" />
<path fill="#112f46" d=" M 47.96 64.06 C 56.51 62.27 57.50 49.09 67.50 53.72 C 72.58 54.83 77.91 53.67 82.93 55.21 C 83.24 60.20 75.65 62.39 77.04 67.93 C 72.20 67.03 69.43 71.47 66.32 74.32 C 63.94 77.38 59.15 79.71 60.09 84.27 C 60.97 88.84 54.04 88.19 56.04 93.17 C 57.18 97.09 53.90 96.03 51.72 97.64 C 49.31 97.65 47.61 98.31 48.46 100.97 C 45.06 102.22 40.23 100.84 38.74 97.32 C 47.47 94.59 36.11 86.09 38.84 79.89 C 47.07 76.49 48.18 87.93 55.97 85.05 C 59.46 77.50 51.94 80.77 48.35 79.78 C 48.42 76.86 47.10 75.41 44.12 76.03 C 45.57 72.15 42.91 65.51 47.96 64.06 Z" />
<path fill="#526865" d=" M 137.48 55.39 C 133.26 51.43 141.64 53.25 144.19 52.78 C 144.57 55.47 146.46 56.39 149.03 56.01 L 149.93 56.07 C 152.62 57.26 153.55 60.83 157.06 60.03 C 156.21 63.41 157.91 64.65 161.18 64.09 C 162.64 65.10 163.88 66.36 164.87 67.84 C 164.41 70.92 166.16 72.50 168.97 73.12 C 169.09 73.79 169.32 75.12 169.44 75.79 C 170.12 77.39 171.97 78.31 172.97 79.78 C 172.96 81.14 172.97 82.50 173.00 83.86 C 171.94 87.85 176.72 88.47 176.87 92.22 C 176.91 93.38 176.96 94.54 177.01 95.69 C 168.58 93.93 177.77 107.96 168.44 105.62 C 163.67 106.88 165.59 99.51 164.90 96.29 C 167.52 95.72 172.32 96.85 169.06 90.98 C 168.24 86.97 171.96 78.05 164.92 80.02 C 161.91 80.60 160.66 78.63 159.90 76.08 C 153.52 68.05 147.42 59.20 137.48 55.39 Z" />
<path fill="#94a7a2" d=" M 12.34 59.65 C 13.42 56.03 16.19 55.01 20.05 55.94 C 20.88 59.30 18.68 60.50 15.70 60.76 C 9.16 56.50 8.97 65.61 4.64 63.42 C 3.36 62.09 1.85 61.04 0.00 60.68 L 0.00 59.94 C 4.12 60.03 8.24 60.04 12.34 59.65 Z" />
<path fill="#638699" d=" M 31.12 56.08 C 32.74 56.05 34.36 56.02 35.98 56.00 C 35.97 57.30 35.96 58.60 35.93 59.90 C 29.39 58.17 30.55 68.94 35.94 69.27 C 39.35 75.59 28.40 73.52 32.11 80.04 C 32.66 83.28 31.21 84.80 27.95 84.02 C 28.29 76.40 28.99 68.73 27.82 61.15 C 26.59 61.07 25.36 61.03 24.12 61.04 C 26.43 59.66 28.80 57.82 31.12 56.08 Z" />
<path fill="#587585" d=" M 93.19 63.15 C 100.50 59.78 107.72 54.58 116.23 56.12 C 114.50 57.94 112.89 60.42 110.02 60.03 C 103.70 58.36 101.03 65.97 94.93 64.95 C 93.96 71.04 84.89 69.46 86.41 76.57 C 85.93 82.73 75.76 80.43 76.10 87.03 C 77.08 93.91 66.61 94.31 67.88 101.99 C 67.86 104.64 64.70 105.50 63.72 107.77 C 60.26 106.57 54.44 111.04 52.02 106.92 C 51.93 103.82 51.91 100.73 51.72 97.64 C 53.90 96.03 57.18 97.09 56.04 93.17 C 60.48 92.15 62.90 83.25 67.91 87.06 C 71.91 92.99 74.12 81.58 72.16 79.11 C 75.16 75.43 80.00 72.28 83.01 68.10 C 85.02 64.22 89.75 64.84 93.19 63.15 Z" />
<path fill="#94a5a9" d=" M 120.97 57.97 C 124.79 52.48 133.08 58.33 133.13 63.85 L 132.14 63.69 C 128.95 61.53 125.68 60.22 123.65 64.45 C 119.19 63.54 119.34 69.07 118.85 72.04 C 115.25 72.06 111.66 72.03 108.07 71.95 C 107.49 71.91 106.33 71.81 105.75 71.76 C 105.83 69.65 107.42 68.79 109.23 68.24 C 112.28 67.67 111.94 64.12 112.79 61.74 C 115.29 60.00 119.22 60.83 120.97 57.97 Z" />
<path fill="#bbcbca" d=" M 149.93 56.07 C 153.57 55.07 157.60 55.78 157.06 60.03 C 153.55 60.83 152.62 57.26 149.93 56.07 Z" />
<path fill="#b4c3c2" d=" M 201.00 56.00 C 204.27 55.29 205.70 56.73 205.00 60.00 C 201.73 60.71 200.29 59.27 201.00 56.00 Z" />
<path fill="#3f6073" d=" M 35.94 69.27 C 30.55 68.94 29.39 58.17 35.93 59.90 C 35.32 63.13 36.67 64.72 39.96 64.08 C 39.82 67.92 40.57 72.45 37.01 74.94 C 39.29 75.79 41.71 76.07 44.12 76.03 C 47.10 75.41 48.42 76.86 48.35 79.78 C 51.94 80.77 59.46 77.50 55.97 85.05 C 48.18 87.93 47.07 76.49 38.84 79.89 C 32.64 78.98 38.71 88.60 33.88 90.84 C 30.18 89.23 27.58 85.88 24.33 83.82 C 25.53 83.92 26.74 83.99 27.95 84.02 C 31.21 84.80 32.66 83.28 32.11 80.04 C 28.40 73.52 39.35 75.59 35.94 69.27 Z" />
<path fill="#a3b4ae" d=" M 157.06 60.03 C 160.35 59.25 161.64 60.89 161.18 64.09 C 157.91 64.65 156.21 63.41 157.06 60.03 Z" />
<path fill="#a7b5ae" d=" M 205.00 60.00 C 208.25 59.30 209.70 60.73 209.02 63.99 C 205.74 64.71 204.28 63.28 205.00 60.00 Z" />
<path fill="#6e7c67" d=" M 0.00 60.68 C 1.85 61.04 3.36 62.09 4.64 63.42 C 8.97 65.61 9.16 56.50 15.70 60.76 C 15.83 61.55 16.07 63.12 16.19 63.91 C 16.21 69.18 9.00 69.38 11.97 76.09 C 11.96 78.69 11.96 81.29 11.96 83.89 C 4.11 82.90 9.05 94.12 8.12 99.30 C 7.99 103.46 8.21 107.64 7.87 111.80 C 5.24 112.24 2.63 112.74 0.00 113.16 L 0.00 60.68 Z" />
<path fill="#8dabb4" d=" M 24.12 61.04 C 25.36 61.03 26.59 61.07 27.82 61.15 C 28.99 68.73 28.29 76.40 27.95 84.02 C 26.74 83.99 25.53 83.92 24.33 83.82 C 23.98 81.43 21.84 80.60 19.91 79.69 C 19.98 75.83 20.05 71.96 20.11 68.10 C 24.79 69.04 24.77 65.28 24.12 61.04 Z" />
<path fill="#b3bfc4" d=" M 123.65 64.45 C 125.68 60.22 128.95 61.53 132.14 63.69 C 127.06 65.95 124.70 72.74 118.85 72.04 C 119.34 69.07 119.19 63.54 123.65 64.45 Z" />
<path fill="#243a34" d=" M 16.19 63.91 C 19.43 63.28 20.61 65.00 20.11 68.10 C 20.05 71.96 19.98 75.83 19.91 79.69 C 18.57 80.76 17.26 81.84 16.06 83.06 C 17.75 80.25 15.51 70.08 11.97 76.09 C 9.00 69.38 16.21 69.18 16.19 63.91 Z" />
<path fill="#d8dcd6" d=" M 118.85 72.04 C 124.70 72.74 127.06 65.95 132.14 63.69 C 131.57 65.87 131.16 68.20 133.09 69.83 C 134.70 77.95 130.12 88.44 122.42 90.55 C 118.86 84.28 106.26 93.24 105.31 85.15 C 106.55 80.60 102.61 74.36 108.07 71.95 C 111.66 72.03 115.25 72.06 118.85 72.04 Z" />
<path fill="#b9c4c3" d=" M 132.14 63.69 L 133.13 63.85 C 132.48 66.74 133.51 68.45 136.54 68.44 C 135.93 74.79 145.52 69.01 145.11 74.65 C 141.61 75.98 139.92 79.74 136.22 80.59 C 135.56 89.78 146.24 93.33 148.76 101.28 C 148.92 108.76 149.44 116.30 148.83 123.77 C 144.98 127.71 140.61 120.25 136.38 120.64 C 133.77 120.44 132.63 118.85 132.83 116.30 C 129.70 104.56 116.55 102.51 107.02 98.02 C 101.10 96.41 106.08 89.63 102.70 86.28 C 100.35 83.66 99.53 80.31 99.72 76.78 C 101.20 74.57 102.72 71.83 105.75 71.76 C 106.33 71.81 107.49 71.91 108.07 71.95 C 102.61 74.36 106.55 80.60 105.31 85.15 C 106.26 93.24 118.86 84.28 122.42 90.55 C 130.12 88.44 134.70 77.95 133.09 69.83 C 131.16 68.20 131.57 65.87 132.14 63.69 Z" />
<path fill="#8aa0a6" d=" M 133.13 63.85 C 138.36 63.46 140.76 69.89 146.38 68.61 C 149.51 73.26 153.20 78.34 159.90 76.08 C 160.66 78.63 161.91 80.60 164.92 80.02 C 168.49 81.80 165.00 85.12 164.53 87.79 C 158.75 90.03 162.36 80.89 157.64 80.31 C 151.95 76.62 153.26 81.52 152.85 83.98 C 150.97 80.89 149.50 76.82 146.02 75.43 C 145.79 75.23 145.34 74.85 145.11 74.65 C 145.52 69.01 135.93 74.79 136.54 68.44 C 133.51 68.45 132.48 66.74 133.13 63.85 Z" />
<path fill="#98a9a3" d=" M 161.18 64.09 C 163.98 62.85 166.17 65.05 164.87 67.84 C 163.88 66.36 162.64 65.10 161.18 64.09 Z" />
<path fill="#b1c3b9" d=" M 209.02 63.99 C 212.29 63.28 213.70 64.81 213.10 68.05 L 212.70 69.07 C 208.81 70.03 208.62 67.09 209.02 63.99 Z" />
<path fill="#8297a1" d=" M 100.54 70.99 C 98.75 65.22 106.14 67.59 109.23 68.24 C 107.42 68.79 105.83 69.65 105.75 71.76 C 102.72 71.83 101.20 74.57 99.72 76.78 C 96.03 76.57 95.59 82.05 97.86 84.12 C 101.47 87.95 98.82 93.80 100.66 98.36 C 102.99 103.84 104.27 109.86 103.91 115.82 C 97.07 120.57 92.59 107.59 86.28 114.59 C 84.03 110.61 79.54 110.74 75.93 108.91 L 75.90 107.81 C 78.21 99.34 63.76 103.47 67.77 110.75 C 62.61 114.30 65.62 122.91 65.10 128.78 C 65.81 128.87 67.24 129.06 67.95 129.15 C 67.94 130.92 67.93 134.46 67.92 136.23 C 66.54 135.93 64.65 136.06 64.78 134.13 C 63.22 125.43 64.50 116.54 63.72 107.77 C 64.70 105.50 67.86 104.64 67.88 101.99 C 66.61 94.31 77.08 93.91 76.10 87.03 C 85.11 83.19 92.79 76.47 100.54 70.99 Z" />
<path fill="#2a4858" d=" M 66.32 74.32 C 69.43 71.47 72.20 67.03 77.04 67.93 C 72.09 73.72 67.38 81.15 60.09 84.27 C 59.15 79.71 63.94 77.38 66.32 74.32 Z" />
<path fill="#446373" d=" M 77.04 67.93 C 78.67 67.97 80.31 68.02 81.95 68.05 L 83.01 68.10 C 80.00 72.28 75.16 75.43 72.16 79.11 C 74.12 81.58 71.91 92.99 67.91 87.06 C 62.90 83.25 60.48 92.15 56.04 93.17 C 54.04 88.19 60.97 88.84 60.09 84.27 C 67.38 81.15 72.09 73.72 77.04 67.93 Z" />
<path fill="#93a59f" d=" M 164.87 67.84 C 168.97 66.93 169.52 69.69 168.97 73.12 C 166.16 72.50 164.41 70.92 164.87 67.84 Z" />
<path fill="#68917d" d=" M 213.10 68.05 C 217.06 68.02 221.03 68.00 225.00 67.99 L 225.00 84.00 C 223.67 84.00 222.34 84.00 221.01 84.00 C 221.01 82.70 221.00 81.41 221.00 80.11 C 221.83 76.62 220.24 75.24 216.82 76.12 C 218.07 71.31 217.73 67.76 212.70 69.07 L 213.10 68.05 Z" />
<path fill="#9bb6aa" d=" M 212.70 69.07 C 217.73 67.76 218.07 71.31 216.82 76.12 C 216.57 73.01 213.33 71.93 212.70 69.07 Z" />
<path fill="#192b11" d=" M 11.97 76.09 C 15.51 70.08 17.75 80.25 16.06 83.06 C 16.00 86.73 16.03 90.41 15.75 94.08 C 14.57 94.05 13.39 94.04 12.20 94.04 C 12.11 90.65 12.03 87.27 11.96 83.89 C 11.96 81.29 11.96 78.69 11.97 76.09 Z" />
<path fill="#9fb0b0" d=" M 136.22 80.59 C 139.92 79.74 141.61 75.98 145.11 74.65 C 145.34 74.85 145.79 75.23 146.02 75.43 C 145.43 76.49 145.07 77.62 144.94 78.82 C 149.51 81.69 151.14 87.11 153.50 91.67 C 158.57 94.14 156.93 84.04 152.85 83.98 C 158.92 82.35 156.84 88.96 157.00 92.88 C 152.67 94.36 147.41 95.62 148.76 101.28 C 146.24 93.33 135.56 89.78 136.22 80.59 Z" />
<path fill="#b4c8ca" d=" M 144.94 78.82 C 145.07 77.62 145.43 76.49 146.02 75.43 C 149.50 76.82 150.97 80.89 152.85 83.98 C 156.93 84.04 158.57 94.14 153.50 91.67 C 151.14 87.11 149.51 81.69 144.94 78.82 Z" />
<path fill="#8da19b" d=" M 169.44 75.79 C 172.15 75.15 173.86 77.18 172.97 79.78 C 171.97 78.31 170.12 77.39 169.44 75.79 Z" />
<path fill="#9ec2af" d=" M 216.82 76.12 C 220.24 75.24 221.83 76.62 221.00 80.11 C 217.91 80.62 216.35 79.27 216.82 76.12 Z" />
<path fill="#9fb3b5" d=" M 97.86 84.12 C 95.59 82.05 96.03 76.57 99.72 76.78 C 99.53 80.31 100.35 83.66 102.70 86.28 C 106.08 89.63 101.10 96.41 107.02 98.02 C 116.55 102.51 129.70 104.56 132.83 116.30 C 128.11 113.04 123.58 107.27 117.25 108.86 C 116.21 107.12 115.85 104.37 113.17 105.02 C 112.06 108.51 112.60 112.18 112.64 115.78 C 110.32 116.72 108.49 118.02 108.97 120.83 L 108.18 120.87 C 102.06 119.12 95.78 120.80 89.61 120.43 C 83.55 122.53 85.61 112.40 79.00 115.95 C 75.48 116.16 76.17 111.28 75.93 108.91 C 79.54 110.74 84.03 110.61 86.28 114.59 C 92.59 107.59 97.07 120.57 103.91 115.82 C 104.27 109.86 102.99 103.84 100.66 98.36 C 98.82 93.80 101.47 87.95 97.86 84.12 Z" />
<path fill="#3e5143" d=" M 16.06 83.06 C 17.26 81.84 18.57 80.76 19.91 79.69 C 21.84 80.60 23.98 81.43 24.33 83.82 C 27.58 85.88 30.18 89.23 33.88 90.84 C 38.71 88.60 32.64 78.98 38.84 79.89 C 36.11 86.09 47.47 94.59 38.74 97.32 L 38.05 96.88 C 33.87 93.80 29.52 90.72 24.00 92.00 C 23.74 97.01 23.19 102.81 27.64 106.15 C 27.85 108.07 28.03 110.00 28.21 111.92 C 28.53 114.52 26.67 116.08 24.25 116.34 C 24.57 113.45 22.26 112.59 19.97 111.87 C 19.60 105.08 22.26 97.11 15.75 94.08 C 16.03 90.41 16.00 86.73 16.06 83.06 Z" />
<path fill="#6c7f7d" d=" M 152.85 83.98 C 153.26 81.52 151.95 76.62 157.64 80.31 C 162.36 80.89 158.75 90.03 164.53 87.79 C 165.00 85.12 168.49 81.80 164.92 80.02 C 171.96 78.05 168.24 86.97 169.06 90.98 C 172.32 96.85 167.52 95.72 164.90 96.29 C 164.16 95.15 163.00 90.80 162.02 94.04 C 160.07 102.91 161.29 112.15 160.91 121.19 C 162.36 113.80 156.91 116.86 153.13 117.03 C 153.80 110.16 151.53 103.24 153.16 96.45 C 155.45 96.15 157.75 95.78 157.00 92.88 C 156.84 88.96 158.92 82.35 152.85 83.98 Z" />
<path fill="#b2c5c3" d=" M 172.97 79.78 C 176.86 79.02 177.57 81.62 177.07 84.93 C 175.72 84.54 174.36 84.19 173.00 83.86 C 172.97 82.50 172.96 81.14 172.97 79.78 Z" />
<path fill="#4d5d40" d=" M 8.12 99.30 C 9.05 94.12 4.11 82.90 11.96 83.89 C 12.03 87.27 12.11 90.65 12.20 94.04 C 12.27 96.65 10.44 98.47 8.12 99.30 Z" />
<path fill="#7c8f8d" d=" M 173.00 83.86 C 174.36 84.19 175.72 84.54 177.07 84.93 C 177.07 85.65 177.08 87.07 177.08 87.78 C 177.00 89.26 176.92 90.74 176.87 92.22 C 176.72 88.47 171.94 87.85 173.00 83.86 Z" />
<path fill="#a0bcae" d=" M 221.01 84.00 C 222.34 84.00 223.67 84.00 225.00 84.00 L 225.00 92.19 C 219.64 93.26 220.54 88.16 221.01 84.00 Z" />
<path fill="#b4bfbe" d=" M 177.08 87.78 C 183.09 88.26 180.57 95.13 180.95 99.19 C 180.32 97.27 179.19 95.78 177.01 95.69 C 176.96 94.54 176.91 93.38 176.87 92.22 C 176.92 90.74 177.00 89.26 177.08 87.78 Z" />
<path fill="#293924" d=" M 24.00 92.00 C 29.52 90.72 33.87 93.80 38.05 96.88 C 27.08 92.94 33.14 102.62 27.64 106.15 C 23.19 102.81 23.74 97.01 24.00 92.00 Z" />
<path fill="#8d9792" d=" M 148.76 101.28 C 147.41 95.62 152.67 94.36 157.00 92.88 C 157.75 95.78 155.45 96.15 153.16 96.45 C 151.53 103.24 153.80 110.16 153.13 117.03 C 156.91 116.86 162.36 113.80 160.91 121.19 C 160.91 121.63 160.92 122.51 160.92 122.95 C 158.55 126.88 152.76 123.76 149.21 125.20 C 148.65 129.66 148.97 134.29 147.66 138.64 C 144.85 141.57 139.95 143.42 140.86 148.25 C 134.75 147.55 131.92 139.47 125.04 140.91 C 123.50 134.29 130.64 136.15 134.86 136.71 C 137.33 131.68 138.15 122.32 129.48 124.60 C 126.15 116.68 115.36 121.34 108.97 120.83 C 108.49 118.02 110.32 116.72 112.64 115.78 C 112.60 112.18 112.06 108.51 113.17 105.02 C 115.85 104.37 116.21 107.12 117.25 108.86 C 123.58 107.27 128.11 113.04 132.83 116.30 C 132.63 118.85 133.77 120.44 136.38 120.64 C 140.61 120.25 144.98 127.71 148.83 123.77 C 149.44 116.30 148.92 108.76 148.76 101.28 Z" />
<path fill="#364c47" d=" M 162.02 94.04 C 163.00 90.80 164.16 95.15 164.90 96.29 C 165.59 99.51 163.67 106.88 168.44 105.62 C 177.77 107.96 168.58 93.93 177.01 95.69 C 173.87 102.22 179.74 103.38 180.87 108.22 C 180.95 110.75 181.05 113.29 181.15 115.82 C 180.81 117.56 181.71 120.38 179.16 120.56 C 174.62 118.52 178.13 111.40 176.82 107.18 C 172.68 106.18 165.36 105.30 165.44 111.36 C 162.72 115.98 167.68 115.90 169.66 117.99 C 168.91 119.90 168.17 121.80 167.70 123.80 C 166.77 124.09 165.87 124.43 164.99 124.82 C 163.44 130.00 159.51 127.64 160.92 122.95 C 160.92 122.51 160.91 121.63 160.91 121.19 C 161.29 112.15 160.07 102.91 162.02 94.04 Z" />
<path fill="#2c3839" d=" M 12.20 94.04 C 13.39 94.04 14.57 94.05 15.75 94.08 C 22.26 97.11 19.60 105.08 19.97 111.87 C 16.10 113.10 7.68 110.37 7.46 116.61 C 4.96 117.01 2.48 117.51 0.00 118.00 L 0.00 113.16 C 2.63 112.74 5.24 112.24 7.87 111.80 C 8.21 107.64 7.99 103.46 8.12 99.30 C 10.44 98.47 12.27 96.65 12.20 94.04 Z" />
<path fill="#677971" d=" M 177.01 95.69 C 179.19 95.78 180.32 97.27 180.95 99.19 C 180.99 101.09 180.98 103.00 180.98 104.91 C 180.95 105.74 180.90 107.39 180.87 108.22 C 179.74 103.38 173.87 102.22 177.01 95.69 Z" />
<path fill="#171e1c" d=" M 27.64 106.15 C 33.14 102.62 27.08 92.94 38.05 96.88 L 38.74 97.32 C 40.23 100.84 45.06 102.22 48.46 100.97 C 47.61 98.31 49.31 97.65 51.72 97.64 C 51.91 100.73 51.93 103.82 52.02 106.92 C 52.02 111.23 51.97 115.55 51.96 119.87 C 51.92 122.99 51.93 126.14 51.86 129.27 C 49.45 128.42 47.45 126.86 45.78 124.96 C 45.44 129.13 46.72 133.11 48.13 136.95 C 52.30 143.52 45.19 150.05 47.08 156.88 C 47.24 163.19 45.17 169.42 44.74 175.73 C 43.56 178.10 41.07 178.32 38.93 177.10 C 35.40 172.02 37.17 165.33 33.78 160.22 C 32.11 157.89 32.00 155.03 32.08 152.23 C 41.93 150.37 34.79 135.55 37.00 128.97 C 35.63 124.17 45.47 132.01 39.96 123.04 C 34.36 120.99 33.20 114.29 28.21 111.92 C 28.03 110.00 27.85 108.07 27.64 106.15 Z" />
<path fill="#9fb3af" d=" M 67.77 110.75 C 63.76 103.47 78.21 99.34 75.90 107.81 C 66.48 109.98 67.78 121.64 67.95 129.15 C 67.24 129.06 65.81 128.87 65.10 128.78 C 65.62 122.91 62.61 114.30 67.77 110.75 Z" />
<path fill="#a7b8b5" d=" M 180.98 104.91 C 186.36 103.66 185.42 108.84 185.07 113.00 C 185.04 114.34 185.02 115.68 185.00 117.02 C 183.73 116.58 182.44 116.19 181.15 115.82 C 181.05 113.29 180.95 110.75 180.87 108.22 C 180.90 107.39 180.95 105.74 180.98 104.91 Z" />
<path fill="#47605b" d=" M 165.44 111.36 C 165.36 105.30 172.68 106.18 176.82 107.18 C 178.13 111.40 174.62 118.52 179.16 120.56 C 177.15 121.90 172.82 118.48 173.01 121.99 C 173.47 125.23 169.58 123.50 167.70 123.80 C 168.17 121.80 168.91 119.90 169.66 117.99 C 167.68 115.90 162.72 115.98 165.44 111.36 Z" />
<path fill="#424747" d=" M 52.02 106.92 C 54.44 111.04 60.26 106.57 63.72 107.77 C 64.50 116.54 63.22 125.43 64.78 134.13 C 64.65 136.06 66.54 135.93 67.92 136.23 C 67.47 139.48 68.20 141.94 71.99 141.15 C 71.98 142.37 71.98 143.60 72.00 144.83 C 71.79 147.11 71.88 149.45 74.77 149.27 C 77.86 153.16 81.76 158.66 88.06 156.89 L 88.89 157.00 C 88.43 160.07 91.01 161.38 93.68 161.32 C 97.31 163.71 102.25 164.73 104.22 168.97 C 102.41 169.01 100.59 169.06 98.78 169.12 C 95.20 169.75 92.80 168.46 91.41 165.42 C 87.16 164.49 80.79 167.08 79.32 161.54 C 71.25 163.70 71.01 154.30 64.55 152.42 C 64.30 149.79 62.82 148.53 60.16 148.81 C 62.14 141.95 53.69 147.24 56.00 140.16 C 62.66 142.29 59.24 131.99 60.36 128.30 C 63.38 122.55 56.99 117.28 51.96 119.87 C 51.97 115.55 52.02 111.23 52.02 106.92 Z" />
<path fill="#b8cfd0" d=" M 67.95 129.15 C 67.78 121.64 66.48 109.98 75.90 107.81 L 75.93 108.91 C 76.17 111.28 75.48 116.16 79.00 115.95 C 85.61 112.40 83.55 122.53 89.61 120.43 C 95.78 120.80 102.06 119.12 108.18 120.87 C 108.11 121.65 107.96 123.22 107.88 124.01 C 107.17 124.02 105.73 124.03 105.01 124.04 C 101.83 117.89 92.84 120.61 88.94 125.09 C 87.10 126.53 84.25 127.98 85.00 130.80 C 89.67 132.36 95.00 134.47 100.06 133.32 C 102.81 139.56 96.67 145.02 90.82 145.40 C 87.16 144.49 83.27 144.99 79.80 143.35 C 77.13 142.69 72.06 146.02 72.91 141.19 C 77.21 141.87 76.29 137.24 76.59 134.22 C 74.53 132.96 72.52 131.63 70.77 129.96 C 68.43 130.98 69.16 133.75 68.85 135.79 L 67.92 136.23 C 67.93 134.46 67.94 130.92 67.95 129.15 Z" />
<path fill="#cadadc" d=" M 185.07 113.00 C 196.30 111.67 210.36 114.14 219.52 109.39 C 220.90 111.13 222.81 112.10 225.00 112.44 L 225.00 113.35 C 218.63 114.86 207.92 108.92 204.35 115.64 C 197.90 116.16 191.41 116.05 185.00 117.02 C 185.02 115.68 185.04 114.34 185.07 113.00 Z" />
<path fill="#0b1929" d=" M 7.46 116.61 C 7.68 110.37 16.10 113.10 19.97 111.87 C 22.26 112.59 24.57 113.45 24.25 116.34 L 23.69 117.19 C 20.51 117.07 14.05 113.17 16.86 120.99 C 14.21 127.42 6.85 131.85 0.00 133.01 L 0.00 118.00 C 2.48 117.51 4.96 117.01 7.46 116.61 Z" />
<path fill="#252e28" d=" M 28.21 111.92 C 33.20 114.29 34.36 120.99 39.96 123.04 C 45.47 132.01 35.63 124.17 37.00 128.97 C 34.79 135.55 41.93 150.37 32.08 152.23 C 32.64 146.12 32.48 140.30 28.34 135.63 C 28.68 128.31 28.26 122.23 23.69 117.19 L 24.25 116.34 C 26.67 116.08 28.53 114.52 28.21 111.92 Z" />
<path fill="#9eb1ba" d=" M 204.35 115.64 C 207.92 108.92 218.63 114.86 225.00 113.35 L 225.00 121.03 C 218.83 120.15 212.33 119.07 206.36 121.38 C 203.51 122.18 204.68 128.77 209.97 124.01 C 214.97 124.05 219.99 124.02 225.00 124.00 L 225.00 125.00 C 221.61 126.76 209.87 121.26 211.75 127.89 C 204.73 127.39 197.72 129.40 190.74 128.59 C 187.15 125.23 183.59 122.93 185.00 117.02 C 191.41 116.05 197.90 116.16 204.35 115.64 Z" />
<path fill="#081218" d=" M 16.86 120.99 C 14.05 113.17 20.51 117.07 23.69 117.19 C 28.26 122.23 28.68 128.31 28.34 135.63 C 32.48 140.30 32.64 146.12 32.08 152.23 C 32.00 155.03 32.11 157.89 33.78 160.22 C 37.17 165.33 35.40 172.02 38.93 177.10 C 28.25 171.68 26.34 188.08 32.99 192.03 C 39.74 194.74 36.57 201.74 37.99 206.97 C 39.20 212.85 39.72 219.12 38.23 225.00 L 0.00 225.00 L 0.00 133.01 C 6.85 131.85 14.21 127.42 16.86 120.99 Z" />
<path fill="#6f8590" d=" M 181.15 115.82 C 182.44 116.19 183.73 116.58 185.00 117.02 C 183.59 122.93 187.15 125.23 190.74 128.59 C 197.72 129.40 204.73 127.39 211.75 127.89 C 209.87 121.26 221.61 126.76 225.00 125.00 L 225.00 129.00 C 210.79 126.34 199.08 133.37 185.17 131.95 C 185.65 127.14 179.71 126.74 176.91 123.89 C 176.36 128.20 183.70 132.39 175.68 132.89 C 172.42 132.98 170.13 144.16 168.53 135.71 C 168.81 132.97 170.87 131.34 172.73 129.61 C 176.51 122.39 168.49 125.49 164.99 124.82 C 165.87 124.43 166.77 124.09 167.70 123.80 C 169.58 123.50 173.47 125.23 173.01 121.99 C 172.82 118.48 177.15 121.90 179.16 120.56 C 181.71 120.38 180.81 117.56 181.15 115.82 Z" />
<path fill="#5a5a53" d=" M 51.96 119.87 C 56.99 117.28 63.38 122.55 60.36 128.30 C 59.24 131.99 62.66 142.29 56.00 140.16 C 57.45 134.65 48.52 135.88 51.86 129.27 C 51.93 126.14 51.92 122.99 51.96 119.87 Z" />
<path fill="#b4b5b0" d=" M 108.97 120.83 C 115.36 121.34 126.15 116.68 129.48 124.60 C 138.15 122.32 137.33 131.68 134.86 136.71 C 130.64 136.15 123.50 134.29 125.04 140.91 C 124.12 143.76 122.21 145.78 119.01 144.99 C 117.78 144.06 117.06 142.75 116.87 141.22 C 121.76 141.15 125.77 138.81 124.79 133.38 C 119.51 129.41 113.59 126.91 107.88 124.01 C 107.96 123.22 108.11 121.65 108.18 120.87 L 108.97 120.83 Z" />
<path fill="#b5cdd3" d=" M 206.36 121.38 C 212.33 119.07 218.83 120.15 225.00 121.03 L 225.00 124.00 C 219.99 124.02 214.97 124.05 209.97 124.01 C 204.68 128.77 203.51 122.18 206.36 121.38 Z" />
<path fill="#e5f5f3" d=" M 88.94 125.09 C 92.84 120.61 101.83 117.89 105.01 124.04 C 111.44 126.31 105.14 130.48 100.56 129.44 C 98.94 135.96 94.82 126.08 90.98 129.02 C 88.32 129.57 89.16 126.73 88.94 125.09 Z" />
<path fill="#637373" d=" M 149.21 125.20 C 152.76 123.76 158.55 126.88 160.92 122.95 C 159.51 127.64 163.44 130.00 164.99 124.82 C 164.70 126.47 165.70 129.37 163.03 129.04 C 159.08 128.82 161.50 134.11 160.71 136.64 C 153.57 140.27 161.82 153.63 153.14 153.20 C 152.30 147.79 159.68 141.43 155.08 136.79 C 152.30 140.94 146.31 141.73 144.75 146.84 C 144.38 148.76 142.66 149.12 140.96 149.25 L 140.86 148.25 C 139.95 143.42 144.85 141.57 147.66 138.64 C 148.97 134.29 148.65 129.66 149.21 125.20 Z" />
<path fill="#d4ded9" d=" M 105.01 124.04 C 105.73 124.03 107.17 124.02 107.88 124.01 C 113.59 126.91 119.51 129.41 124.79 133.38 C 125.77 138.81 121.76 141.15 116.87 141.22 C 116.50 139.84 116.19 138.44 115.80 137.07 C 112.00 132.35 105.59 131.09 100.06 133.32 C 95.00 134.47 89.67 132.36 85.00 130.80 C 84.25 127.98 87.10 126.53 88.94 125.09 C 89.16 126.73 88.32 129.57 90.98 129.02 C 94.82 126.08 98.94 135.96 100.56 129.44 C 105.14 130.48 111.44 126.31 105.01 124.04 Z" />
<path fill="#98abba" d=" M 176.91 123.89 C 179.71 126.74 185.65 127.14 185.17 131.95 L 185.21 132.91 C 181.43 132.00 180.81 135.93 178.02 137.18 C 176.59 136.26 176.43 134.30 175.68 132.89 C 183.70 132.39 176.36 128.20 176.91 123.89 Z" />
<path fill="#0e1110" d=" M 45.78 124.96 C 47.45 126.86 49.45 128.42 51.86 129.27 C 48.52 135.88 57.45 134.65 56.00 140.16 C 53.69 147.24 62.14 141.95 60.16 148.81 C 58.56 150.67 52.82 154.60 56.42 156.43 C 62.12 157.44 60.96 165.49 66.08 167.86 C 70.22 169.96 73.95 173.29 71.86 178.61 C 69.04 179.39 64.96 179.77 64.02 183.06 C 64.15 189.82 71.35 192.49 74.10 197.91 C 76.87 204.83 85.24 206.75 91.85 205.19 C 91.95 206.49 92.01 207.80 92.02 209.11 C 91.99 211.74 91.98 214.38 92.00 217.02 C 91.99 219.68 91.99 222.34 91.99 225.00 L 38.23 225.00 C 39.72 219.12 39.20 212.85 37.99 206.97 C 36.57 201.74 39.74 194.74 32.99 192.03 C 26.34 188.08 28.25 171.68 38.93 177.10 C 41.07 178.32 43.56 178.10 44.74 175.73 C 45.17 169.42 47.24 163.19 47.08 156.88 C 45.19 150.05 52.30 143.52 48.13 136.95 C 46.72 133.11 45.44 129.13 45.78 124.96 Z" />
<path fill="#95a8af" d=" M 164.99 124.82 C 168.49 125.49 176.51 122.39 172.73 129.61 C 170.87 131.34 168.81 132.97 168.53 135.71 C 166.37 139.39 159.87 144.65 160.71 136.64 C 161.50 134.11 159.08 128.82 163.03 129.04 C 165.70 129.37 164.70 126.47 164.99 124.82 Z" />
<path fill="#566a74" d=" M 185.17 131.95 C 199.08 133.37 210.79 126.34 225.00 129.00 L 225.00 132.86 C 223.78 133.25 220.62 132.11 221.57 134.36 C 223.01 138.33 216.57 135.33 214.29 135.84 C 206.45 129.29 194.49 134.81 185.21 132.91 L 185.17 131.95 Z" />
<path fill="#d7e5e8" d=" M 68.85 135.79 C 69.16 133.75 68.43 130.98 70.77 129.96 C 72.52 131.63 74.53 132.96 76.59 134.22 C 76.29 137.24 77.21 141.87 72.91 141.19 L 71.99 141.15 C 72.06 138.50 72.69 135.00 68.85 135.79 Z" />
<path fill="#a2acab" d=" M 100.06 133.32 C 105.59 131.09 112.00 132.35 115.80 137.07 C 109.22 136.22 98.66 142.54 101.59 150.34 C 103.10 155.13 94.31 148.75 94.00 153.06 C 93.68 157.58 100.34 155.96 101.20 160.00 C 94.98 162.82 93.13 158.03 88.89 157.00 L 88.06 156.89 C 81.31 154.66 78.55 146.18 72.00 144.83 C 71.98 143.60 71.98 142.37 71.99 141.15 L 72.91 141.19 C 72.06 146.02 77.13 142.69 79.80 143.35 C 83.27 144.99 87.16 144.49 90.82 145.40 C 96.67 145.02 102.81 139.56 100.06 133.32 Z" />
<path fill="#7f92a1" d=" M 168.53 135.71 C 170.13 144.16 172.42 132.98 175.68 132.89 C 176.43 134.30 176.59 136.26 178.02 137.18 C 180.81 135.93 181.43 132.00 185.21 132.91 C 186.16 136.94 180.37 136.18 180.86 139.91 C 184.12 138.16 195.93 143.67 194.28 137.12 C 200.94 136.71 207.61 136.09 214.29 135.84 C 216.57 135.33 223.01 138.33 221.57 134.36 C 220.62 132.11 223.78 133.25 225.00 132.86 L 225.00 136.99 C 221.40 136.98 217.83 136.98 214.24 137.04 C 210.45 136.95 205.47 135.59 203.89 139.99 C 195.06 143.13 183.10 137.16 176.75 145.75 C 174.06 145.38 170.37 143.94 169.58 147.46 C 171.75 155.77 158.93 150.56 161.78 158.87 C 158.87 162.88 152.44 165.45 152.52 171.60 C 149.02 172.91 143.39 174.65 144.64 168.76 C 144.59 165.88 145.30 163.47 148.60 163.49 C 146.45 157.85 152.24 157.41 153.14 153.20 C 161.82 153.63 153.57 140.27 160.71 136.64 C 159.87 144.65 166.37 139.39 168.53 135.71 Z" />
<path fill="#3a4c5b" d=" M 185.21 132.91 C 194.49 134.81 206.45 129.29 214.29 135.84 C 207.61 136.09 200.94 136.71 194.28 137.12 C 195.93 143.67 184.12 138.16 180.86 139.91 C 180.37 136.18 186.16 136.94 185.21 132.91 Z" />
<path fill="#9ea6a9" d=" M 67.92 136.23 L 68.85 135.79 C 72.69 135.00 72.06 138.50 71.99 141.15 C 68.20 141.94 67.47 139.48 67.92 136.23 Z" />
<path fill="#919590" d=" M 101.59 150.34 C 98.66 142.54 109.22 136.22 115.80 137.07 C 116.19 138.44 116.50 139.84 116.87 141.22 C 117.06 142.75 117.78 144.06 119.01 144.99 C 115.73 145.06 113.76 149.55 110.34 148.63 C 107.94 147.07 102.91 142.60 104.23 150.46 C 102.44 154.23 103.12 157.05 107.73 156.81 C 107.85 158.19 107.96 159.58 108.06 160.96 C 103.26 161.04 98.46 161.03 93.68 161.32 C 91.01 161.38 88.43 160.07 88.89 157.00 C 93.13 158.03 94.98 162.82 101.20 160.00 C 100.34 155.96 93.68 157.58 94.00 153.06 C 94.31 148.75 103.10 155.13 101.59 150.34 Z" />
<path fill="#41515a" d=" M 144.75 146.84 C 146.31 141.73 152.30 140.94 155.08 136.79 C 159.68 141.43 152.30 147.79 153.14 153.20 C 152.24 157.41 146.45 157.85 148.60 163.49 C 145.30 163.47 144.59 165.88 144.64 168.76 C 144.38 171.34 143.80 173.82 140.58 172.95 C 141.71 168.92 144.73 165.88 144.29 161.32 C 149.01 160.05 148.90 154.82 147.83 150.95 C 145.55 151.45 143.58 152.88 141.21 153.10 C 141.12 151.82 141.04 150.53 140.96 149.25 C 142.66 149.12 144.38 148.76 144.75 146.84 Z" />
<path fill="#b8ccdd" d=" M 203.89 139.99 C 205.47 135.59 210.45 136.95 214.24 137.04 C 214.76 142.18 204.73 139.66 209.25 143.87 C 214.49 144.04 219.74 144.09 225.00 144.02 L 225.00 145.01 C 219.93 145.00 214.88 144.97 209.82 145.01 C 206.72 145.47 201.29 143.25 200.35 147.62 C 196.15 148.06 191.88 147.76 187.74 148.67 C 187.10 148.67 185.84 148.68 185.21 148.68 C 182.48 148.29 179.73 147.80 177.10 148.78 C 177.01 148.02 176.84 146.51 176.75 145.75 C 183.10 137.16 195.06 143.13 203.89 139.99 Z" />
<path fill="#dcf0f6" d=" M 214.24 137.04 C 217.83 136.98 221.40 136.98 225.00 136.99 L 225.00 144.02 C 219.74 144.09 214.49 144.04 209.25 143.87 C 204.73 139.66 214.76 142.18 214.24 137.04 Z" />
<path fill="#7c8177" d=" M 125.04 140.91 C 131.92 139.47 134.75 147.55 140.86 148.25 L 140.96 149.25 C 141.04 150.53 141.12 151.82 141.21 153.10 C 135.71 152.23 135.93 160.31 129.03 156.93 C 131.91 156.11 133.53 151.97 132.32 149.66 C 127.76 146.15 129.11 157.84 122.99 153.01 C 117.54 152.87 113.35 156.61 107.73 156.81 C 103.12 157.05 102.44 154.23 104.23 150.46 C 102.91 142.60 107.94 147.07 110.34 148.63 C 113.76 149.55 115.73 145.06 119.01 144.99 C 122.21 145.78 124.12 143.76 125.04 140.91 Z" />
<path fill="#6f777a" d=" M 72.00 144.83 C 78.55 146.18 81.31 154.66 88.06 156.89 C 81.76 158.66 77.86 153.16 74.77 149.27 C 71.88 149.45 71.79 147.11 72.00 144.83 Z" />
<path fill="#637683" d=" M 169.58 147.46 C 170.37 143.94 174.06 145.38 176.75 145.75 C 176.84 146.51 177.01 148.02 177.10 148.78 C 173.70 146.60 170.47 149.62 172.88 153.03 C 169.84 152.38 168.42 153.80 168.70 156.84 C 168.25 158.88 167.59 160.95 165.36 161.59 C 163.72 167.68 176.24 166.05 177.33 161.21 C 178.97 161.13 182.26 160.96 183.90 160.88 C 179.79 166.49 198.01 166.51 197.17 161.00 C 199.63 160.65 201.70 161.07 201.22 164.05 L 201.04 164.93 C 196.95 164.96 192.86 164.99 188.78 165.03 C 184.27 165.77 176.38 162.29 175.95 169.01 C 170.56 169.41 165.14 167.77 159.80 168.74 C 153.57 167.98 156.71 181.39 163.00 177.06 C 168.06 179.10 169.46 176.79 169.11 173.07 C 170.75 173.08 174.03 173.10 175.67 173.12 C 176.46 175.11 178.19 176.25 180.17 176.86 C 176.22 175.82 173.28 177.09 172.13 180.70 C 165.41 181.09 158.69 180.72 151.98 181.12 C 152.65 184.62 151.59 191.86 158.05 189.05 C 164.90 193.03 163.41 184.22 168.57 184.74 C 167.64 192.47 181.14 185.32 176.99 192.84 C 168.63 189.23 167.62 199.43 161.23 200.86 C 161.02 203.55 160.94 206.30 160.83 209.01 L 160.03 208.97 C 160.54 206.09 158.83 204.67 156.31 203.89 C 157.06 201.66 157.86 199.44 158.21 197.10 C 163.78 200.80 166.59 192.87 161.32 192.54 C 157.18 189.52 151.15 194.50 148.04 189.91 C 145.72 187.20 144.47 191.07 144.00 193.04 C 142.63 186.81 149.07 184.00 149.00 178.12 C 146.23 176.12 140.59 177.49 140.58 172.95 C 143.80 173.82 144.38 171.34 144.64 168.76 C 143.39 174.65 149.02 172.91 152.52 171.60 C 152.44 165.45 158.87 162.88 161.78 158.87 C 158.93 150.56 171.75 155.77 169.58 147.46 Z" />
<path fill="#8a9fad" d=" M 200.35 147.62 C 201.29 143.25 206.72 145.47 209.82 145.01 C 210.44 151.15 220.41 146.66 225.00 148.03 L 225.00 148.99 C 222.08 148.99 219.19 148.98 216.29 149.07 C 211.78 147.64 208.79 149.39 206.98 153.06 C 203.54 153.10 200.13 152.93 196.71 152.88 C 199.18 151.54 206.22 153.93 205.02 149.10 C 199.25 148.94 193.49 148.92 187.74 148.67 C 191.88 147.76 196.15 148.06 200.35 147.62 Z" />
<path fill="#62747b" d=" M 209.82 145.01 C 214.88 144.97 219.93 145.00 225.00 145.01 L 225.00 148.03 C 220.41 146.66 210.44 151.15 209.82 145.01 Z" />
<path fill="#30455c" d=" M 172.88 153.03 C 170.47 149.62 173.70 146.60 177.10 148.78 C 177.71 152.15 176.33 153.83 172.88 153.03 Z" />
<path fill="#8098af" d=" M 177.10 148.78 C 179.73 147.80 182.48 148.29 185.21 148.68 C 176.74 147.93 183.44 156.15 189.31 153.24 C 185.51 160.17 174.93 155.59 168.70 156.84 C 168.42 153.80 169.84 152.38 172.88 153.03 C 176.33 153.83 177.71 152.15 177.10 148.78 Z" />
<path fill="#191a1a" d=" M 60.16 148.81 C 62.82 148.53 64.30 149.79 64.55 152.42 C 71.01 154.30 71.25 163.70 79.32 161.54 C 80.79 167.08 87.16 164.49 91.41 165.42 C 92.80 168.46 95.20 169.75 98.78 169.12 C 97.09 174.61 108.71 170.68 105.04 175.05 C 104.12 178.73 95.08 178.36 97.77 182.17 C 100.09 183.84 103.06 184.32 105.44 185.92 C 100.55 187.62 97.03 191.57 92.22 193.40 C 90.08 198.43 97.98 195.73 96.31 201.18 C 96.81 205.03 91.92 205.03 92.93 209.02 L 92.02 209.11 C 92.01 207.80 91.95 206.49 91.85 205.19 C 85.24 206.75 76.87 204.83 74.10 197.91 C 71.35 192.49 64.15 189.82 64.02 183.06 C 64.96 179.77 69.04 179.39 71.86 178.61 C 73.95 173.29 70.22 169.96 66.08 167.86 C 60.96 165.49 62.12 157.44 56.42 156.43 C 52.82 154.60 58.56 150.67 60.16 148.81 Z" />
<path fill="#959a8b" d=" M 122.99 153.01 C 129.11 157.84 127.76 146.15 132.32 149.66 C 133.53 151.97 131.91 156.11 129.03 156.93 C 128.66 159.03 128.30 161.03 125.25 161.32 C 123.91 162.09 123.57 164.69 121.52 163.78 C 120.76 159.20 115.12 161.49 111.81 160.87 C 123.45 159.05 113.04 155.97 107.73 156.81 C 113.35 156.61 117.54 152.87 122.99 153.01 Z" />
<path fill="#4c6277" d=" M 189.31 153.24 C 183.44 156.15 176.74 147.93 185.21 148.68 C 185.84 148.68 187.10 148.67 187.74 148.67 C 193.49 148.92 199.25 148.94 205.02 149.10 C 206.22 153.93 199.18 151.54 196.71 152.88 L 195.71 152.97 C 194.11 153.03 190.91 153.17 189.31 153.24 Z" />
<path fill="#b5c9d5" d=" M 206.98 153.06 C 208.79 149.39 211.78 147.64 216.29 149.07 C 215.17 153.11 210.52 153.31 206.98 153.06 Z" />
<path fill="#d7eaf4" d=" M 216.29 149.07 C 219.19 148.98 222.08 148.99 225.00 148.99 L 225.00 156.00 C 217.25 156.01 209.47 155.65 201.76 156.54 C 201.35 156.56 200.52 156.59 200.11 156.61 C 197.83 156.29 195.46 155.82 195.71 152.97 L 196.71 152.88 C 200.13 152.93 203.54 153.10 206.98 153.06 C 210.52 153.31 215.17 153.11 216.29 149.07 Z" />
<path fill="#232e2f" d=" M 141.21 153.10 C 143.58 152.88 145.55 151.45 147.83 150.95 C 148.90 154.82 149.01 160.05 144.29 161.32 C 144.73 165.88 141.71 168.92 140.58 172.95 C 139.15 179.97 135.68 186.26 132.68 192.49 C 132.30 193.93 132.04 195.40 131.77 196.87 C 129.59 196.86 126.91 196.78 128.28 199.69 C 129.36 208.80 137.02 210.29 145.15 209.12 C 144.55 211.65 142.17 214.34 144.14 216.82 C 146.86 220.35 141.67 222.14 140.41 225.00 L 137.58 225.00 C 137.84 221.79 140.44 219.81 142.09 217.30 C 136.45 218.69 134.51 210.93 129.28 212.00 C 128.69 214.64 130.05 222.41 124.80 220.86 C 123.32 215.32 128.44 202.10 120.81 200.79 C 128.68 190.13 100.91 182.04 103.86 196.90 C 98.60 195.35 102.09 202.56 96.31 201.18 C 97.98 195.73 90.08 198.43 92.22 193.40 C 97.03 191.57 100.55 187.62 105.44 185.92 C 103.06 184.32 100.09 183.84 97.77 182.17 C 95.08 178.36 104.12 178.73 105.04 175.05 C 108.71 170.68 97.09 174.61 98.78 169.12 C 100.59 169.06 102.41 169.01 104.22 168.97 C 108.29 169.51 112.84 170.16 112.40 165.14 C 116.57 164.96 120.76 165.13 124.94 164.95 C 129.82 162.72 132.15 166.92 135.81 167.98 C 137.49 162.99 140.12 158.28 141.21 153.10 Z" />
<path fill="#3e4b48" d=" M 129.03 156.93 C 135.93 160.31 135.71 152.23 141.21 153.10 C 140.12 158.28 137.49 162.99 135.81 167.98 C 132.15 166.92 129.82 162.72 124.94 164.95 C 125.03 163.74 125.13 162.53 125.25 161.32 C 128.30 161.03 128.66 159.03 129.03 156.93 Z" />
<path fill="#b6cee5" d=" M 189.31 153.24 C 190.91 153.17 194.11 153.03 195.71 152.97 C 195.46 155.82 197.83 156.29 200.11 156.61 C 195.79 159.41 191.46 160.89 185.72 160.73 C 185.26 160.77 184.35 160.84 183.90 160.88 C 182.26 160.96 178.97 161.13 177.33 161.21 C 173.02 161.51 167.68 162.39 168.70 156.84 C 174.93 155.59 185.51 160.17 189.31 153.24 Z" />
<path fill="#b2c5d0" d=" M 201.76 156.54 C 209.47 155.65 217.25 156.01 225.00 156.00 L 225.00 156.98 C 218.56 156.99 212.12 156.98 205.68 157.14 C 204.37 156.93 203.07 156.73 201.76 156.54 Z" />
<path fill="#c4c8b7" d=" M 107.73 156.81 C 113.04 155.97 123.45 159.05 111.81 160.87 C 110.56 160.92 109.31 160.95 108.06 160.96 C 107.96 159.58 107.85 158.19 107.73 156.81 Z" />
<path fill="#8097af" d=" M 165.36 161.59 C 167.59 160.95 168.25 158.88 168.70 156.84 C 167.68 162.39 173.02 161.51 177.33 161.21 C 176.24 166.05 163.72 167.68 165.36 161.59 Z" />
<path fill="#8498ab" d=" M 185.72 160.73 C 191.46 160.89 195.79 159.41 200.11 156.61 C 200.52 156.59 201.35 156.56 201.76 156.54 C 203.07 156.73 204.37 156.93 205.68 157.14 C 206.23 161.26 212.00 158.38 212.86 160.92 C 208.57 161.02 205.91 165.04 201.22 164.05 C 201.70 161.07 199.63 160.65 197.17 161.00 C 193.34 160.97 189.53 160.95 185.72 160.73 Z" />
<path fill="#67777e" d=" M 205.68 157.14 C 212.12 156.98 218.56 156.99 225.00 156.98 L 225.00 159.80 C 217.05 157.95 225.08 170.96 217.08 169.32 C 212.10 169.58 212.93 164.54 212.86 160.92 C 212.00 158.38 206.23 161.26 205.68 157.14 Z" />
<path fill="#9da6a8" d=" M 217.08 169.32 C 225.08 170.96 217.05 157.95 225.00 159.80 L 225.00 192.97 C 222.41 192.99 219.83 193.04 217.26 193.11 C 220.87 189.25 214.69 188.90 213.05 185.94 C 209.28 183.31 204.23 185.01 199.89 184.93 C 202.72 180.35 206.13 176.39 211.90 176.90 C 213.74 177.03 212.72 174.21 213.29 173.09 C 216.21 173.57 217.59 172.25 217.08 169.32 Z" />
<path fill="#60645b" d=" M 93.68 161.32 C 98.46 161.03 103.26 161.04 108.06 160.96 C 109.31 160.95 110.56 160.92 111.81 160.87 C 115.12 161.49 120.76 159.20 121.52 163.78 C 123.57 164.69 123.91 162.09 125.25 161.32 C 125.13 162.53 125.03 163.74 124.94 164.95 C 120.76 165.13 116.57 164.96 112.40 165.14 C 112.84 170.16 108.29 169.51 104.22 168.97 C 102.25 164.73 97.31 163.71 93.68 161.32 Z" />
<path fill="#395267" d=" M 183.90 160.88 C 184.35 160.84 185.26 160.77 185.72 160.73 C 189.53 160.95 193.34 160.97 197.17 161.00 C 198.01 166.51 179.79 166.49 183.90 160.88 Z" />
<path fill="#adb9c5" d=" M 201.22 164.05 C 205.91 165.04 208.57 161.02 212.86 160.92 C 212.93 164.54 212.10 169.58 217.08 169.32 C 217.59 172.25 216.21 173.57 213.29 173.09 C 212.93 167.49 205.86 164.78 201.04 164.93 L 201.22 164.05 Z" />
<path fill="#8ca7b8" d=" M 175.95 169.01 C 176.38 162.29 184.27 165.77 188.78 165.03 C 188.68 167.67 190.48 169.55 193.18 169.16 C 193.23 171.32 191.69 172.31 189.83 172.87 C 186.13 172.94 182.46 172.93 178.77 172.85 C 181.37 172.58 186.56 172.05 189.16 171.78 C 188.17 166.00 179.93 170.23 175.95 169.01 Z" />
<path fill="#d0dde7" d=" M 188.78 165.03 C 192.86 164.99 196.95 164.96 201.04 164.93 C 205.86 164.78 212.93 167.49 213.29 173.09 C 212.72 174.21 213.74 177.03 211.90 176.90 C 206.13 176.39 202.72 180.35 199.89 184.93 C 199.20 184.97 197.82 185.06 197.13 185.10 C 197.11 182.42 197.12 179.75 197.16 177.08 C 199.96 177.53 201.37 176.19 201.43 173.42 C 204.29 173.41 205.73 171.97 205.01 169.05 C 201.07 168.99 197.12 169.03 193.18 169.16 C 190.48 169.55 188.68 167.67 188.78 165.03 Z" />
<path fill="#b3cadc" d=" M 159.80 168.74 C 165.14 167.77 170.56 169.41 175.95 169.01 C 179.93 170.23 188.17 166.00 189.16 171.78 C 186.56 172.05 181.37 172.58 178.77 172.85 C 178.00 172.92 176.44 173.05 175.67 173.12 C 174.03 173.10 170.75 173.08 169.11 173.07 C 165.02 172.94 158.43 174.88 159.80 168.74 Z" />
<path fill="#8b9ead" d=" M 163.00 177.06 C 156.71 181.39 153.57 167.98 159.80 168.74 C 158.43 174.88 165.02 172.94 169.11 173.07 C 169.46 176.79 168.06 179.10 163.00 177.06 Z" />
<path fill="#7a8b9a" d=" M 193.18 169.16 C 197.12 169.03 201.07 168.99 205.01 169.05 C 205.73 171.97 204.29 173.41 201.43 173.42 C 201.37 176.19 199.96 177.53 197.16 177.08 C 197.50 172.81 193.64 171.85 189.83 172.87 C 191.69 172.31 193.23 171.32 193.18 169.16 Z" />
<path fill="#475753" d=" M 132.68 192.49 C 135.68 186.26 139.15 179.97 140.58 172.95 C 140.59 177.49 146.23 176.12 149.00 178.12 C 149.07 184.00 142.63 186.81 144.00 193.04 C 140.95 192.74 139.57 195.68 137.45 197.27 C 136.65 194.88 135.61 192.46 132.68 192.49 Z" />
<path fill="#3a5360" d=" M 175.67 173.12 C 176.44 173.05 178.00 172.92 178.77 172.85 C 182.46 172.93 186.13 172.94 189.83 172.87 C 193.64 171.85 197.50 172.81 197.16 177.08 C 191.49 177.00 185.83 176.96 180.17 176.86 C 178.19 176.25 176.46 175.11 175.67 173.12 Z" />
<path fill="#94aab2" d=" M 172.13 180.70 C 173.28 177.09 176.22 175.82 180.17 176.86 C 185.83 176.96 191.49 177.00 197.16 177.08 C 197.12 179.75 197.11 182.42 197.13 185.10 C 198.13 190.06 192.38 189.49 189.28 191.36 C 187.74 186.97 189.88 184.63 193.29 182.94 C 189.49 179.87 176.85 177.81 175.81 184.97 C 174.00 184.91 170.38 184.80 168.57 184.74 C 171.23 184.35 174.32 183.90 172.13 180.70 Z" />
<path fill="#b2c3cc" d=" M 151.98 181.12 C 158.69 180.72 165.41 181.09 172.13 180.70 C 174.32 183.90 171.23 184.35 168.57 184.74 C 163.41 184.22 164.90 193.03 158.05 189.05 C 151.59 191.86 152.65 184.62 151.98 181.12 Z" />
<path fill="#5f777d" d=" M 175.81 184.97 C 176.85 177.81 189.49 179.87 193.29 182.94 C 189.88 184.63 187.74 186.97 189.28 191.36 C 187.99 192.27 186.53 192.84 185.01 193.24 C 184.13 188.64 190.98 187.01 187.03 182.03 C 184.06 185.11 179.83 185.11 175.81 184.97 Z" />
<path fill="#384d54" d=" M 175.81 184.97 C 179.83 185.11 184.06 185.11 187.03 182.03 C 190.98 187.01 184.13 188.64 185.01 193.24 C 184.97 194.43 184.94 195.62 184.93 196.81 C 183.62 197.17 182.31 197.51 181.03 197.94 C 181.48 194.65 180.93 191.97 176.99 192.84 C 181.14 185.32 167.64 192.47 168.57 184.74 C 170.38 184.80 174.00 184.91 175.81 184.97 Z" />
<path fill="#8e989a" d=" M 199.89 184.93 C 204.23 185.01 209.28 183.31 213.05 185.94 C 214.69 188.90 220.87 189.25 217.26 193.11 C 222.46 208.38 199.24 194.32 201.04 205.08 C 197.02 207.48 196.53 204.43 196.96 200.80 C 196.88 192.61 189.50 202.26 185.03 198.93 C 185.01 198.40 184.96 197.34 184.93 196.81 C 184.94 195.62 184.97 194.43 185.01 193.24 C 186.53 192.84 187.99 192.27 189.28 191.36 C 192.38 189.49 198.13 190.06 197.13 185.10 C 197.82 185.06 199.20 184.97 199.89 184.93 Z" />
<path fill="#454c4d" d=" M 103.86 196.90 C 100.91 182.04 128.68 190.13 120.81 200.79 C 119.54 200.86 118.27 200.92 117.00 200.98 C 118.35 195.99 113.89 196.74 110.15 197.01 C 108.05 196.97 105.96 196.94 103.86 196.90 Z" />
<path fill="#88989d" d=" M 144.00 193.04 C 144.47 191.07 145.72 187.20 148.04 189.91 C 151.15 194.50 157.18 189.52 161.32 192.54 C 157.34 194.30 146.04 189.34 148.03 196.89 C 151.41 196.99 154.82 197.05 158.21 197.10 C 157.86 199.44 157.06 201.66 156.31 203.89 C 158.83 204.67 160.54 206.09 160.03 208.97 C 158.75 208.96 157.46 208.96 156.18 208.95 C 156.78 204.84 152.04 204.49 150.89 201.09 C 147.21 196.55 149.55 206.64 148.96 209.00 C 148.22 209.02 146.73 209.06 145.99 209.08 C 144.99 203.78 144.50 198.41 144.00 193.04 Z" />
<path fill="#6e7978" d=" M 131.77 196.87 C 132.04 195.40 132.30 193.93 132.68 192.49 C 135.61 192.46 136.65 194.88 137.45 197.27 C 135.56 197.11 133.66 196.99 131.77 196.87 Z" />
<path fill="#616f6d" d=" M 137.45 197.27 C 139.57 195.68 140.95 192.74 144.00 193.04 C 144.50 198.41 144.99 203.78 145.99 209.08 L 145.15 209.12 C 137.02 210.29 129.36 208.80 128.28 199.69 C 126.91 196.78 129.59 196.86 131.77 196.87 C 132.93 199.58 131.36 206.01 135.84 204.94 C 136.65 202.44 136.94 199.81 137.45 197.27 Z" />
<path fill="#bed0d7" d=" M 148.03 196.89 C 146.04 189.34 157.34 194.30 161.32 192.54 C 166.59 192.87 163.78 200.80 158.21 197.10 C 154.82 197.05 151.41 196.99 148.03 196.89 Z" />
<path fill="#23333e" d=" M 161.23 200.86 C 167.62 199.43 168.63 189.23 176.99 192.84 C 180.93 191.97 181.48 194.65 181.03 197.94 C 181.04 199.71 181.07 203.25 181.09 205.02 L 181.10 205.84 C 181.03 210.53 180.96 215.24 180.95 219.94 C 179.38 222.88 175.71 220.97 173.01 221.13 C 171.71 221.07 170.41 221.02 169.12 220.99 C 168.75 217.46 169.20 211.40 163.92 213.02 C 163.18 213.02 161.72 213.03 160.98 213.03 C 160.79 211.69 160.79 210.35 160.83 209.01 C 160.94 206.30 161.02 203.55 161.23 200.86 Z" />
<path fill="#b9c4c5" d=" M 217.26 193.11 C 219.83 193.04 222.41 192.99 225.00 192.97 L 225.00 225.00 L 221.02 225.00 C 221.01 222.40 220.99 219.81 220.96 217.22 C 223.69 205.22 210.13 203.82 201.04 205.08 C 199.24 194.32 222.46 208.38 217.26 193.11 Z" />
<path fill="#737876" d=" M 96.31 201.18 C 102.09 202.56 98.60 195.35 103.86 196.90 C 105.96 196.94 108.05 196.97 110.15 197.01 C 110.30 203.17 104.18 213.81 109.88 217.11 C 111.84 217.43 113.80 217.83 115.80 217.93 C 118.01 214.79 115.34 209.35 120.00 207.88 C 123.46 203.68 114.53 206.27 117.00 200.98 C 118.27 200.92 119.54 200.86 120.81 200.79 C 128.44 202.10 123.32 215.32 124.80 220.86 C 124.38 222.23 124.03 223.61 123.67 225.00 L 96.12 225.00 C 96.30 221.55 96.99 217.59 92.88 217.30 C 98.04 216.93 103.24 208.06 98.09 204.70 C 96.83 206.80 96.02 209.76 92.93 209.02 C 91.92 205.03 96.81 205.03 96.31 201.18 Z" />
<path fill="#929996" d=" M 110.15 197.01 C 113.89 196.74 118.35 195.99 117.00 200.98 C 107.19 198.19 116.67 211.84 109.22 213.53 C 108.96 214.77 109.55 215.95 109.88 217.11 C 104.18 213.81 110.30 203.17 110.15 197.01 Z" />
<path fill="#a4b0ae" d=" M 131.77 196.87 C 133.66 196.99 135.56 197.11 137.45 197.27 C 136.94 199.81 136.65 202.44 135.84 204.94 C 131.36 206.01 132.93 199.58 131.77 196.87 Z" />
<path fill="#647179" d=" M 181.03 197.94 C 182.31 197.51 183.62 197.17 184.93 196.81 C 184.96 197.34 185.01 198.40 185.03 198.93 C 185.95 203.07 185.38 205.96 181.09 205.02 C 181.07 203.25 181.04 199.71 181.03 197.94 Z" />
<path fill="#9ca7af" d=" M 185.03 198.93 C 189.50 202.26 196.88 192.61 196.96 200.80 C 193.24 200.94 188.36 203.42 188.90 207.76 C 188.85 211.60 188.87 215.48 189.09 219.32 C 189.01 221.39 190.09 223.20 190.95 225.00 L 185.09 225.00 C 185.08 224.51 185.05 223.53 185.04 223.05 C 184.54 217.20 187.45 209.29 181.10 205.84 L 181.09 205.02 C 185.38 205.96 185.95 203.07 185.03 198.93 Z" />
<path fill="#a6b6bf" d=" M 148.96 209.00 C 149.55 206.64 147.21 196.55 150.89 201.09 C 152.04 204.49 156.78 204.84 156.18 208.95 C 154.38 208.96 150.77 208.99 148.96 209.00 Z" />
<path fill="#c1c6c3" d=" M 109.22 213.53 C 116.67 211.84 107.19 198.19 117.00 200.98 C 114.53 206.27 123.46 203.68 120.00 207.88 C 115.34 209.35 118.01 214.79 115.80 217.93 C 113.80 217.83 111.84 217.43 109.88 217.11 C 109.55 215.95 108.96 214.77 109.22 213.53 Z" />
<path fill="#b5bfc3" d=" M 188.90 207.76 C 188.36 203.42 193.24 200.94 196.96 200.80 C 196.53 204.43 197.02 207.48 201.04 205.08 C 205.89 214.20 194.03 209.40 197.06 217.05 C 198.49 221.45 193.14 221.39 192.54 225.00 L 190.95 225.00 C 190.09 223.20 189.01 221.39 189.09 219.32 C 194.39 218.08 195.64 205.73 188.90 207.76 Z" />
<path fill="#8b9291" d=" M 92.93 209.02 C 96.02 209.76 96.83 206.80 98.09 204.70 C 103.24 208.06 98.04 216.93 92.88 217.30 L 92.00 217.02 C 91.98 214.38 91.99 211.74 92.02 209.11 L 92.93 209.02 Z" />
<path fill="#dae2e4" d=" M 201.04 205.08 C 210.13 203.82 223.69 205.22 220.96 217.22 C 215.75 216.92 215.23 210.03 211.11 208.96 C 206.81 214.24 197.87 216.75 199.88 225.00 L 192.54 225.00 C 193.14 221.39 198.49 221.45 197.06 217.05 C 194.03 209.40 205.89 214.20 201.04 205.08 Z" />
<path fill="#77818a" d=" M 181.10 205.84 C 187.45 209.29 184.54 217.20 185.04 223.05 C 183.74 221.92 182.35 220.93 180.95 219.94 C 180.96 215.24 181.03 210.53 181.10 205.84 Z" />
<path fill="#d5e0e8" d=" M 188.90 207.76 C 195.64 205.73 194.39 218.08 189.09 219.32 C 188.87 215.48 188.85 211.60 188.90 207.76 Z" />
<path fill="#495a61" d=" M 145.15 209.12 L 145.99 209.08 C 146.73 209.06 148.22 209.02 148.96 209.00 C 150.77 208.99 154.38 208.96 156.18 208.95 C 157.46 208.96 158.75 208.96 160.03 208.97 L 160.83 209.01 C 160.79 210.35 160.79 211.69 160.98 213.03 C 156.99 212.96 153.01 212.97 149.03 213.06 C 148.88 216.49 148.97 219.95 149.35 223.37 C 148.91 223.78 148.03 224.59 147.59 225.00 L 140.41 225.00 C 141.67 222.14 146.86 220.35 144.14 216.82 C 142.17 214.34 144.55 211.65 145.15 209.12 Z" />
<path fill="#f2f6f8" d=" M 199.88 225.00 C 197.87 216.75 206.81 214.24 211.11 208.96 C 215.23 210.03 215.75 216.92 220.96 217.22 C 220.99 219.81 221.01 222.40 221.02 225.00 L 199.88 225.00 Z" />
<path fill="#12191a" d=" M 129.28 212.00 C 134.51 210.93 136.45 218.69 142.09 217.30 C 140.44 219.81 137.84 221.79 137.58 225.00 L 123.67 225.00 C 124.03 223.61 124.38 222.23 124.80 220.86 C 130.05 222.41 128.69 214.64 129.28 212.00 Z" />
<path fill="#94a5b0" d=" M 149.03 213.06 C 153.01 212.97 156.99 212.96 160.98 213.03 C 161.73 216.73 158.08 217.63 155.23 217.77 C 152.86 219.08 151.63 221.85 149.35 223.37 C 148.97 219.95 148.88 216.49 149.03 213.06 Z" />
<path fill="#778794" d=" M 160.98 213.03 C 161.72 213.03 163.18 213.02 163.92 213.02 C 164.70 216.64 163.69 222.59 169.12 220.99 C 170.41 221.02 171.71 221.07 173.01 221.13 C 173.00 222.42 173.00 223.71 173.00 225.00 L 147.59 225.00 C 148.03 224.59 148.91 223.78 149.35 223.37 C 151.63 221.85 152.86 219.08 155.23 217.77 C 158.08 217.63 161.73 216.73 160.98 213.03 Z" />
<path fill="#3f4f5c" d=" M 163.92 213.02 C 169.20 211.40 168.75 217.46 169.12 220.99 C 163.69 222.59 164.70 216.64 163.92 213.02 Z" />
<path fill="#3c4443" d=" M 92.00 217.02 L 92.88 217.30 C 96.99 217.59 96.30 221.55 96.12 225.00 L 91.99 225.00 C 91.99 222.34 91.99 219.68 92.00 217.02 Z" />
<path fill="#424e58" d=" M 173.01 221.13 C 175.71 220.97 179.38 222.88 180.95 219.94 C 182.35 220.93 183.74 221.92 185.04 223.05 C 185.05 223.53 185.08 224.51 185.09 225.00 L 173.00 225.00 C 173.00 223.71 173.00 222.42 173.01 221.13 Z" />
</svg>
